<svg xmlns="http://www.w3.org/2000/svg" width="12" height="11.998" viewBox="0 0 12 11.998">
  <path id="Icon_awesome-upload" data-name="Icon awesome-upload" d="M6.937,9H5.063A.561.561,0,0,1,4.5,8.441V4.5H2.445a.468.468,0,0,1-.33-.8L5.679.137a.454.454,0,0,1,.64,0L9.886,3.7a.468.468,0,0,1-.33.8H7.5V8.441A.561.561,0,0,1,6.937,9ZM12,8.816v2.625a.561.561,0,0,1-.563.563H.562A.561.561,0,0,1,0,11.441V8.816a.561.561,0,0,1,.562-.562H3.75v.187A1.313,1.313,0,0,0,5.063,9.754H6.937A1.313,1.313,0,0,0,8.25,8.441V8.254h3.187A.561.561,0,0,1,12,8.816ZM9.094,10.879a.469.469,0,1,0-.469.469A.47.47,0,0,0,9.094,10.879Zm1.5,0a.469.469,0,1,0-.469.469A.47.47,0,0,0,10.594,10.879Z" transform="translate(0 -0.005)" fill="#255488"/>
</svg>
