<?xml version="1.0" encoding="utf-8"?>
<!-- Generator: Adobe Illustrator 25.4.1, SVG Export Plug-In . SVG Version: 6.00 Build 0)  -->
<svg version="1.1" id="Layer_1" xmlns="http://www.w3.org/2000/svg" xmlns:xlink="http://www.w3.org/1999/xlink" x="0px" y="0px"
	 viewBox="0 0 38.7 38.7" style="enable-background:new 0 0 38.7 38.7;" xml:space="preserve">
<style type="text/css">
	.st0{display:none;}
	.st1{display:inline;}
	.st2{fill:#373331;}
	.st3{fill:#373331;stroke:#373331;stroke-width:0.2;stroke-miterlimit:10;}
</style>
<g id="Expanded" class="st0">
	<g class="st1">
		<g>
			<path class="st2" d="M124.8,31.3h-40c-2.2,0-4-1.8-4-4v-24c0-2.2,1.8-4,4-4h40c2.2,0,4,1.8,4,4v24
				C128.8,29.5,127,31.3,124.8,31.3z M84.8,1.3c-1.1,0-2,0.9-2,2v24c0,1.1,0.9,2,2,2h40c1.1,0,2-0.9,2-2v-24c0-1.1-0.9-2-2-2
				C124.8,1.3,84.8,1.3,84.8,1.3z"/>
		</g>
		<g>
			<path class="st2" d="M104.8,20.4L87.3,9.1c-0.5-0.3-0.6-0.9-0.3-1.4c0.3-0.5,0.9-0.6,1.4-0.3L104.9,18l16.5-10.6
				c0.5-0.3,1.1-0.2,1.4,0.3s0.2,1.1-0.3,1.4L104.8,20.4z"/>
		</g>
		<g>
			<path class="st2" d="M86.8,25.3c-0.3,0-0.6-0.2-0.8-0.4c-0.3-0.5-0.2-1.1,0.3-1.4l9-6c0.5-0.3,1.1-0.2,1.4,0.3s0.2,1.1-0.3,1.4
				l-9,6C87.2,25.2,87,25.3,86.8,25.3z"/>
		</g>
		<g>
			<path class="st2" d="M122.8,25.3c-0.2,0-0.4-0.1-0.6-0.2l-9-6c-0.5-0.3-0.6-0.9-0.3-1.4c0.3-0.5,0.9-0.6,1.4-0.3l9,6
				c0.5,0.3,0.6,0.9,0.3,1.4C123.5,25.1,123.2,25.3,122.8,25.3z"/>
		</g>
	</g>
</g>
<g id="B7R1hf.tif" class="st0">
	<g class="st1">
		<path class="st3" d="M0.5,18.2c0-3.8,0-7.6,0-11.4C0.5,5.7,1.2,5,2.3,5c2.3,0,4.6,0,6.9,0c0.3,0,0.3,0,0.3-0.3c0-0.8,0-1.6,0-2.4
			c0-0.9,0.5-1.5,1.3-1.7c0.1,0,0.2,0,0.4,0c4.4,0,8.8,0,13.2,0c0.6,0,1,0.2,1.4,0.6c1,1,1.9,1.9,2.9,2.9c0.2,0.2,0.4,0.4,0.4,0.7
			C29.1,5,29.2,5,29.4,5c2.1,0,4.3,0,6.4,0c0.3,0,0.6,0,0.9,0c0.9,0.1,1.4,0.8,1.4,1.6c0,2.2,0,4.4,0,6.6c0,5.4,0,10.9,0,16.3
			c0,0.5-0.2,1-0.6,1.4c-0.4,0.3-0.8,0.4-1.2,0.4c-3.3,0-6.5,0-9.8,0c-1.4,0-2.9,0-4.3,0c-0.3,0-0.3,0-0.2,0.3
			c0.2,0.7,0.4,1.3,0.5,2c0,0.2,0.1,0.2,0.3,0.2c0.5,0,1.1,0,1.6,0c1.6,0.1,2.9,1.4,3.1,3c0,0.1,0,0.3,0,0.4c0,0.4-0.2,0.7-0.7,0.7
			c-1.3,0-2.5,0-3.8,0c-3.8,0-7.5,0-11.3,0h-0.1c-0.5,0-0.7-0.2-0.7-0.7c0-1,0.5-1.9,1.3-2.6c0.7-0.6,1.5-0.8,2.3-0.8
			c0.4,0,0.8,0,1.2,0c0.2,0,0.2,0,0.3-0.2c0.2-0.7,0.4-1.4,0.5-2.1c0.1-0.2,0-0.2-0.2-0.2c-2.2,0-4.5,0-6.7,0c-2.5,0-4.9,0-7.4,0
			c-0.7,0-1.2-0.2-1.6-0.8c-0.2-0.3-0.2-0.6-0.2-0.9C0.5,25.8,0.5,22,0.5,18.2z M19.3,26.2c5.7,0,11.5,0,17.2,0c0.3,0,0.3,0,0.3-0.3
			c0-6.4,0-12.7,0-19.1c0-0.4-0.1-0.5-0.5-0.5c-2.3,0-4.6,0-6.9,0c-0.3,0-0.3,0-0.3,0.3c0,3,0,6.1,0,9.1c0,2.3,0,4.6,0,6.9
			c0,1.1-0.7,1.7-1.8,1.7c-0.6,0-1.2,0-1.8,0c-4.8,0-9.7,0-14.5,0c-0.3,0-0.6-0.1-0.9-0.2c-0.6-0.4-0.8-0.9-0.8-1.6
			c0-5.3,0-10.6,0-15.9c0-0.3,0-0.3-0.3-0.3c-2.2,0-4.5,0-6.7,0c-0.6,0-0.7,0-0.7,0.7c0,5.2,0,10.3,0,15.5c0,1.2,0,2.3,0,3.5
			c0,0.2,0.1,0.3,0.2,0.2c0.1,0,0.1,0,0.2,0C7.9,26.2,13.6,26.2,19.3,26.2z M10.7,12.5c0,3.4,0,6.8,0,10.1c0,0.4,0.1,0.5,0.5,0.5
			c5.4,0,10.8,0,16.3,0c0.4,0,0.5-0.1,0.5-0.5c0-1.6,0-3.2,0-4.8c0-4,0-8,0-12c0-0.2-0.1-0.3-0.3-0.3c-0.9,0-1.7,0-2.6,0
			c-0.5,0-0.8-0.2-0.8-0.8c0-0.9,0-1.7,0-2.6c0-0.3,0-0.3-0.3-0.3c-4.3,0-8.5,0-12.8,0c-0.5,0-0.6,0.1-0.6,0.6
			C10.7,5.8,10.7,9.1,10.7,12.5z M19.3,27.4c-5.8,0-11.5,0-17.3,0c-0.3,0-0.3,0-0.3,0.3c0,0.7,0,1.3,0,2c0,0.4,0.1,0.5,0.5,0.5
			c0.1,0,0.2,0,0.3,0c6.2,0,12.4,0,18.6,0c5.1,0,10.1,0,15.2,0c0.4,0,0.5-0.1,0.5-0.5c0-0.6,0-1.3,0-1.9c0-0.3,0-0.3-0.3-0.3
			C30.8,27.4,25.1,27.4,19.3,27.4z M19.3,36.8L19.3,36.8c2.2,0,4.5,0,6.7,0c0.3,0,0.3,0,0.2-0.3c-0.3-0.8-1.2-1.4-2.1-1.4
			c-3.2,0-6.4,0-9.5,0c-0.1,0-0.3,0-0.4,0c-0.8,0.2-1.4,0.7-1.7,1.5c-0.1,0.2,0,0.2,0.1,0.2h0.1C14.9,36.8,17.1,36.8,19.3,36.8z
			 M19.3,33.9c0.6,0,1.2,0,1.8,0c0.2,0,0.2,0,0.2-0.2c-0.2-0.7-0.4-1.4-0.6-2.1c0-0.1-0.1-0.2-0.3-0.2c-0.7,0-1.5,0-2.2,0
			c-0.1,0-0.2,0-0.3,0.2c-0.2,0.7-0.4,1.4-0.6,2.1c0,0.2,0,0.2,0.2,0.2C18.1,33.9,18.7,33.9,19.3,33.9z M25.5,2.8c0,0.5,0,0.9,0,1.4
			c0,0.1,0.1,0.1,0.2,0.1c0.4,0,0.8,0,1.3,0h0.1C26.5,3.8,26,3.3,25.5,2.8z"/>
		<path class="st3" d="M16.1,13c0,0.4,0,0.8,0,1.2s-0.2,0.7-0.7,0.7c-0.8,0-1.6,0-2.4,0c-0.4,0-0.7-0.3-0.7-0.7c0-0.8,0-1.6,0-2.4
			c0-0.4,0.3-0.7,0.7-0.7c0.8,0,1.6,0,2.3,0c0.5,0,0.7,0.2,0.7,0.7C16.1,12.3,16.1,12.6,16.1,13z M14.3,13.7c0.2,0,0.3,0,0.5,0
			c0.1,0,0.2,0,0.2-0.2c0-0.3,0-0.6,0-0.9c0-0.1,0-0.2-0.2-0.2c-0.3,0-0.6,0-0.9,0c-0.1,0-0.2,0.1-0.2,0.2c0,0.1,0,0.3,0,0.4
			C13.6,13.7,13.6,13.7,14.3,13.7C14.2,13.7,14.2,13.7,14.3,13.7z"/>
		<path class="st3" d="M14.2,20.1c-0.4,0-0.8,0-1.2,0s-0.6-0.2-0.6-0.6c0-0.8,0-1.6,0-2.5c0-0.4,0.2-0.6,0.6-0.6c0.7-0.1,1.3,0,2,0
			c0.2,0,0.4,0,0.6,0c0.3,0,0.5,0.3,0.5,0.6c0,0.8,0,1.7,0,2.5c0,0.3-0.3,0.6-0.6,0.6C15.1,20.1,14.7,20.1,14.2,20.1L14.2,20.1z
			 M14.3,18.9c0.2,0,0.3,0,0.5,0c0.1,0,0.2,0,0.2-0.2c0-0.3,0-0.6,0-0.9c0-0.1,0-0.2-0.2-0.2c-0.3,0-0.6,0-1,0
			c-0.1,0-0.2,0.1-0.2,0.2c0,0.3,0,0.6,0,0.9c0,0.1,0.1,0.2,0.2,0.2C14,18.9,14.1,18.9,14.3,18.9z"/>
		<path class="st3" d="M22,17.6c1.2,0,2.4,0,3.5,0c0.4,0,0.6,0.2,0.7,0.5c0.1,0.4-0.2,0.7-0.7,0.7c-0.9,0-1.8,0-2.7,0
			c-1.4,0-2.9,0-4.3,0c-0.1,0-0.2,0-0.3,0c-0.3-0.1-0.5-0.3-0.5-0.6c0-0.3,0.2-0.5,0.5-0.6c0.1,0,0.1,0,0.2,0
			C19.7,17.6,20.9,17.6,22,17.6z"/>
		<path class="st3" d="M22,7.2c1.2,0,2.4,0,3.5,0c0.4,0,0.7,0.2,0.7,0.6c0,0.3-0.2,0.6-0.5,0.6c-0.1,0-0.2,0-0.2,0
			c-2.4,0-4.7,0-7.1,0c-0.3,0-0.5-0.1-0.6-0.3c-0.2-0.4,0.1-0.9,0.6-0.9c0.6,0,1.2,0,1.8,0C20.8,7.2,21.4,7.2,22,7.2z"/>
		<path class="st3" d="M22,12.4c1.2,0,2.4,0,3.6,0c0.3,0,0.5,0.2,0.6,0.4c0.1,0.4-0.2,0.8-0.6,0.8c-0.5,0-1.1,0-1.6,0
			c-1.9,0-3.7,0-5.6,0c-0.4,0-0.6-0.2-0.7-0.6c0-0.3,0.2-0.6,0.6-0.6c0.5,0,0.9,0,1.4,0C20.5,12.4,21.3,12.4,22,12.4z"/>
		<path class="st3" d="M13.8,9.3c-0.2,0-0.3-0.1-0.4-0.2c-0.3-0.3-0.6-0.6-0.9-0.9c-0.2-0.2-0.2-0.6,0-0.8c0.2-0.2,0.6-0.3,0.9,0
			c0.1,0.1,0.2,0.2,0.3,0.3c0.1,0.1,0.2,0.1,0.3,0c0.4-0.4,0.8-0.8,1.2-1.2c0.2-0.2,0.4-0.2,0.6-0.2c0.2,0.1,0.4,0.2,0.4,0.5
			c0,0.2,0,0.4-0.2,0.5c-0.6,0.6-1.2,1.2-1.8,1.8C14.1,9.3,14,9.3,13.8,9.3z"/>
	</g>
</g>
<g class="st0">
	<g class="st1">
		<path class="st2" d="M228.6,35.3c0,1.8-0.8,3.2-2.5,3.9c-0.8,0.4-1.7,0.7-2.5,1c-0.5,0.2-1,0.1-1.2-0.4s0.2-0.8,0.6-0.9
			c0.7-0.3,1.5-0.6,2.3-0.9c1.5-0.6,2.2-1.8,1.8-3.4c-0.7-2.7-1.5-5.3-2.3-7.9c-0.4-1.2-0.7-2.5-1.1-3.7c-0.3-1-0.9-1.7-1.8-2.2
			c-0.9-0.5-1.9-1.1-2.7-1.7c-0.6-0.4-0.8-0.2-0.9,0.4c0,0.1-0.1,0.2-0.1,0.3c-0.2,2.2-1.9,3.1-3.6,3.9c-0.5,0.2-1,0.3-1.3-0.3
			c-0.3-0.5,0.1-0.9,0.6-1.1c2-0.7,2.8-2.3,3.2-4.2c0.3-1.4,0.9-2.9,1.3-4.3c0.3-0.9,0.2-1.6-0.3-2.4c-1.6-2.4-3.2-4.8-4.8-7.2
			c-2-2.9-5.8-2.9-7.7,0S202,10,200.2,13c-0.4,0.6-0.3,1.3-0.1,1.9c0.7,1.7,1.4,3.4,2.2,5c0.5,1,1.4,1.6,2.2,2.3
			c0.4,0.4,0.9,0.8,0.3,1.4c-0.5,0.5-1,0.1-1.3-0.3c-1.4-1.2-2.6-2.4-3.1-4.2c-0.2-0.6-0.5-0.7-1-0.3c-1.2,0.8-2.4,1.5-3.6,2.3
			c-0.7,0.4-1.1,1.1-1.3,1.9c-1.1,3.9-2.3,7.8-3.4,11.8c-0.4,1.4,0.4,2.9,1.9,3.4c0.7,0.3,1.5,0.5,2.2,0.8c0.4,0.2,0.7,0.5,0.5,1
			s-0.6,0.6-1,0.4c-1-0.4-2.1-0.7-3.1-1.2c-1.7-1-2.5-2.9-1.9-4.8c1.1-4,2.3-8,3.5-12c0.3-1.1,1-2,2-2.7c1.2-0.8,2.4-1.5,3.6-2.3
			c0.5-0.3,0.7-0.6,0.4-1.2c-0.9-1.8-0.7-3.4,0.4-5c1.7-2.5,3.2-5.2,4.8-7.8c2.3-3.6,7.4-3.9,10-0.4c1.9,2.6,3.6,5.4,5.4,8.1
			c0.6,0.9,0.5,1.9,0.2,2.8c-0.2,0.8-0.4,1.6-0.7,2.3c-0.2,0.6-0.1,0.9,0.5,1.2c1.1,0.6,2.1,1.3,3.2,1.9c1.1,0.7,1.9,1.6,2.2,2.8
			c1.2,3.9,2.3,7.8,3.4,11.7C228.5,34.4,228.6,34.9,228.6,35.3z"/>
		<path class="st2" d="M209.1,24.9c3.7,0,7.4,0,11.1,0c1.2,0,1.3,0.1,1.3,1.3c0,4.3,0,8.6,0,12.9c0,1-0.2,1.2-1.4,1.2
			c-6.9,0-13.8,0-20.7,0c-0.6,0-1.2,0-1.8,0c-0.7,0-1.1-0.3-1.1-1.1c0-4.5,0-8.9,0-13.4c0-0.9,0.6-1,1.3-1
			C201.6,24.9,205.4,24.9,209.1,24.9L209.1,24.9z M209,38.9c3.3,0,6.7,0,10,0c0.8,0,1.1-0.3,1.1-1.1c0-3.5,0-7,0-10.5
			c0-0.8-0.3-1-1-1c-6.7,0-13.4,0-20,0c-0.8,0-1.1,0.3-1.1,1.1c0,3.5,0,6.9,0,10.4c0,0.9,0.3,1.1,1.1,1.1
			C202.4,38.9,205.7,38.9,209,38.9z"/>
		<path class="st2" d="M209.1,40.9c3.6,0,7.2,0,10.8,0c0.3,0,0.5,0,0.8,0c0.4,0.1,0.9,0.2,0.9,0.7s-0.4,0.7-0.8,0.8
			c-0.4,0-0.7,0.1-1.1,0.1c-3.7-0.2-7.4,0.1-11.2-0.1c-3.5-0.1-7,0-10.5,0.1c-0.4,0-0.7,0-1-0.2s-0.5-0.4-0.4-0.7s0.3-0.5,0.6-0.6
			s0.7-0.1,1.1-0.1C201.8,40.9,205.5,40.9,209.1,40.9z"/>
		<path class="st2" d="M209.2,21.5c-2,0-3-0.6-3.7-2.4c-0.5-1.2-1-2.4-1.4-3.6c-0.2-0.5-0.2-0.9,0.3-1.1c0.6-0.2,0.8,0.2,1,0.6
			c0.5,1.2,1,2.5,1.5,3.7s1,1.4,2.5,1.4c1-0.1,1.5-0.6,1.9-1.5c0.4-1.2,1-2.3,1.5-3.5c0.2-0.4,0.5-0.9,1-0.6
			c0.6,0.2,0.5,0.7,0.3,1.2c-0.5,1.2-1,2.4-1.5,3.6C212.1,20.8,210.9,21.6,209.2,21.5z"/>
		<path class="st2" d="M209.2,9.6c0.6,0,1.1,0.2,1.6,0.5c1.6,1.1,3.2,2.1,4.9,3.2c0.4,0.3,0.8,0.7,0.4,1.2c-0.4,0.5-0.8,0.4-1.3,0.1
			c-1.5-1-2.9-1.9-4.4-2.9c-0.8-0.6-1.6-0.6-2.4,0c-1.4,1-2.9,1.9-4.3,2.8c-0.5,0.3-1,0.6-1.4,0s0.1-1,0.5-1.2c1.5-1,3.1-2,4.6-3
			C208,9.8,208.5,9.6,209.2,9.6z"/>
	</g>
</g>
<g>
	<g>
		<path d="M1.5,8.5C1.7,8,1.8,7.6,2,7.1c0.4-0.9,0.9-1.7,1.6-2.4C4.5,3.9,5.4,3,6.3,2.1C6.8,1.6,7.4,1.2,8.1,1
			c1.1-0.3,2.1-0.1,3,0.6c0.6,0.5,1.2,1,1.8,1.6c1.1,1.1,2.3,2.3,3.4,3.4c0.6,0.6,1.1,1.3,1.3,2.2c0.2,1.1,0,2.1-0.7,3
			c-0.5,0.7-1.1,1.2-1.7,1.7c-0.5,0.4-0.9,0.9-1.4,1.4c-0.1,0.1-0.1,0.2,0,0.2c0.3,0.6,0.6,1.2,0.9,1.8c0.7,1.1,1.6,2.2,2.5,3.2
			c1.5,1.7,3.3,3.2,5.2,4.5c0.5,0.3,1,0.6,1.5,0.9c0.1,0.1,0.2,0,0.3-0.1c0.8-0.8,1.6-1.6,2.4-2.4c0.4-0.4,0.9-0.8,1.5-1
			c1.3-0.6,2.5-0.4,3.6,0.4c0.4,0.3,0.8,0.7,1.2,1.1c1.3,1.3,2.6,2.6,3.9,3.9c0.5,0.5,1,1.1,1.1,1.9c0.2,1.2,0,2.3-0.7,3.3
			c-0.4,0.6-1,1.1-1.5,1.6c-0.6,0.5-1.1,1.1-1.6,1.6c-1,1-2.2,1.7-3.6,1.9c-1.2,0.2-2.3,0-3.5-0.2c-1.9-0.4-3.7-1.1-5.5-2
			c-2.8-1.4-5.4-3.1-7.7-5c-2.2-1.8-4.2-3.9-5.9-6.2c-1.6-2.1-3.1-4.3-4.2-6.6c-0.8-1.6-1.5-3.3-1.9-5.1c-0.1-0.5-0.2-1-0.3-1.4
			C1.5,10.2,1.5,9.3,1.5,8.5z M29.5,35.4c0.2,0,0.4,0,0.7,0c0.9-0.1,1.7-0.4,2.4-1.1c0.2-0.2,0.4-0.5,0.7-0.7
			c0.7-0.8,1.5-1.4,2.2-2.2c0.2-0.3,0.5-0.5,0.6-0.9c0.2-0.6-0.1-1.2-0.5-1.6c-1.5-1.5-3-3-4.5-4.5c-0.2-0.2-0.4-0.3-0.6-0.4
			c-0.4-0.2-0.8-0.2-1.2,0c-0.3,0.1-0.5,0.3-0.7,0.5c-0.9,0.9-1.8,1.8-2.8,2.8c-0.1,0.1-0.3,0.3-0.5,0.4c-0.5,0.3-1.1,0.3-1.6,0
			c-0.3-0.1-0.5-0.4-0.8-0.5c-0.9-0.4-1.8-1-2.6-1.6c-1.8-1.3-3.4-2.8-4.8-4.4c-1.2-1.3-2.2-2.7-3.1-4.2c-0.3-0.6-0.7-1.2-0.8-1.9
			c-0.1-0.7,0.1-1.2,0.6-1.6c0.4-0.3,0.8-0.7,1.1-1.1c0.5-0.5,1.1-1.1,1.6-1.6c0.7-0.7,0.8-1.4,0.2-2.2c0,0-0.1-0.1-0.1-0.1
			c-0.9-0.9-1.8-1.9-2.8-2.7c-0.1-0.1-0.3-0.3-0.4-0.4c-0.1-0.1-0.2-0.2-0.3-0.3C11,4.5,10.4,4,9.9,3.5C9.4,3.2,9,3.1,8.5,3.4
			C8.2,3.5,7.9,3.6,7.7,3.9C6.8,4.8,5.8,5.7,4.9,6.7c-0.6,0.6-1,1.5-1,2.3c-0.1,1,0,2,0.2,3c0.3,1.5,0.9,2.9,1.5,4.2
			c0.8,1.8,1.9,3.4,3,5c1.8,2.5,3.8,4.8,6.2,6.8c1.8,1.6,3.8,3,5.8,4.2c1.9,1.1,3.8,2,5.8,2.6C27.4,35.1,28.4,35.3,29.5,35.4z"/>
	</g>
</g>
</svg>
