<svg xmlns="http://www.w3.org/2000/svg" width="70.625" height="70.625" viewBox="0 0 70.625 70.625">
  <g id="Icon_ionic-ios-checkmark-circle-outline" data-name="Icon ionic-ios-checkmark-circle-outline" transform="translate(-3.375 -3.375)">
    <path id="Path_30178" data-name="Path 30178" d="M46.8,15.483,43.811,12.41a.642.642,0,0,0-.475-.2h0a.616.616,0,0,0-.475.2L22.149,33.275l-7.538-7.538a.656.656,0,0,0-.951,0l-3.022,3.022a.676.676,0,0,0,0,.968l9.507,9.507a3.007,3.007,0,0,0,1.986.968,3.15,3.15,0,0,0,1.969-.934h.017l22.7-22.817A.726.726,0,0,0,46.8,15.483Z" transform="translate(9.986 12.492)" fill="#4eba62"/>
    <path id="Path_30179" data-name="Path 30179" d="M38.688,8.129A30.564,30.564,0,0,1,60.3,60.3,30.564,30.564,0,0,1,17.076,17.076,30.357,30.357,0,0,1,38.688,8.129m0-4.754A35.312,35.312,0,1,0,74,38.688,35.307,35.307,0,0,0,38.688,3.375Z" fill="#4eba62"/>
  </g>
</svg>
