<svg xmlns="http://www.w3.org/2000/svg" width="12.37" height="16.493" viewBox="0 0 12.37 16.493">
  <path id="Icon_awesome-clipboard-list" data-name="Icon awesome-clipboard-list" d="M10.824,2.062H8.247a2.062,2.062,0,1,0-4.123,0H1.546A1.547,1.547,0,0,0,0,3.608V14.947a1.547,1.547,0,0,0,1.546,1.546h9.277a1.547,1.547,0,0,0,1.546-1.546V3.608A1.547,1.547,0,0,0,10.824,2.062Zm-7.731,11.6a.773.773,0,1,1,.773-.773A.771.771,0,0,1,3.092,13.659Zm0-3.093a.773.773,0,1,1,.773-.773A.771.771,0,0,1,3.092,10.566Zm0-3.093A.773.773,0,1,1,3.866,6.7.771.771,0,0,1,3.092,7.474ZM6.185,1.289a.773.773,0,1,1-.773.773A.771.771,0,0,1,6.185,1.289Zm4.123,11.855a.258.258,0,0,1-.258.258H5.412a.258.258,0,0,1-.258-.258v-.515a.258.258,0,0,1,.258-.258h4.639a.258.258,0,0,1,.258.258Zm0-3.093a.258.258,0,0,1-.258.258H5.412a.258.258,0,0,1-.258-.258V9.535a.258.258,0,0,1,.258-.258h4.639a.258.258,0,0,1,.258.258Zm0-3.092a.258.258,0,0,1-.258.258H5.412a.258.258,0,0,1-.258-.258V6.443a.258.258,0,0,1,.258-.258h4.639a.258.258,0,0,1,.258.258Z" fill="#255488"/>
</svg>
