<?xml version="1.0" encoding="utf-8"?>
<!-- Generator: Adobe Illustrator 25.4.1, SVG Export Plug-In . SVG Version: 6.00 Build 0)  -->
<svg version="1.1" id="Layer_1" xmlns="http://www.w3.org/2000/svg" xmlns:xlink="http://www.w3.org/1999/xlink" x="0px" y="0px"
	 viewBox="0 0 323.6 49.8" style="enable-background:new 0 0 323.6 49.8;" xml:space="preserve">
<style type="text/css">
	.st0{fill:#E4174F;}
	.st1{fill:#FFFFFF;}
	.st2{fill:#0ECE6D;}
	.st3{fill:#6C62F9;}
	.st4{fill:#0AD0F4;}
	.st5{fill:#8942E5;}
</style>
<g>
	<circle id="Ellipse_108" class="st0" cx="25.5" cy="24.9" r="24"/>
	<g id="Group_749" transform="translate(-59.185 -250.937)">
		<path id="Path_1445" class="st1" d="M84.1,277.9c-1.2,0-2.3-0.3-3.4-0.9l-7.6-4.1c-1.6-0.9-2.3-2.9-1.4-4.6
			c0.3-0.6,0.8-1.1,1.4-1.4l7.7-4c2.1-1.1,4.6-1.1,6.7,0l7.7,4c1.7,0.9,2.3,2.9,1.4,4.6c-0.3,0.6-0.8,1.1-1.4,1.4l-7.6,4.1
			C86.5,277.6,85.3,277.8,84.1,277.9L84.1,277.9z M84.1,264.1c-0.8,0-1.7,0.2-2.4,0.6l-7.7,4c-0.7,0.4-0.9,1.2-0.6,1.9
			c0.1,0.2,0.3,0.4,0.6,0.6l7.6,4.1c1.5,0.8,3.3,0.8,4.9,0l7.6-4.1c0.7-0.4,0.9-1.2,0.6-1.9c-0.1-0.2-0.3-0.4-0.6-0.6l-7.7-4
			C85.8,264.3,85,264,84.1,264.1L84.1,264.1z M87.5,286.1l8.9-4.8c0.5-0.3,0.7-0.9,0.4-1.4c-0.3-0.5-0.9-0.7-1.4-0.4l-8.9,4.8
			c-1.5,0.8-3.4,0.8-4.9,0l-8.9-4.7c-0.5-0.3-1.1-0.1-1.4,0.4s-0.1,1.1,0.4,1.4l0,0l8.9,4.7C82.9,287.2,85.4,287.2,87.5,286.1
			L87.5,286.1z M87.5,281.6l8.9-4.8c0.5-0.3,0.7-0.9,0.4-1.4c-0.3-0.5-0.9-0.7-1.4-0.4l-8.9,4.8c-1.5,0.8-3.4,0.8-4.9,0l-8.9-4.7
			c-0.5-0.3-1.1-0.1-1.4,0.4s-0.1,1.1,0.4,1.4l8.9,4.7C82.9,282.7,85.4,282.7,87.5,281.6L87.5,281.6z"/>
	</g>
</g>
<g>
	<circle id="Ellipse_109" class="st2" cx="229.5" cy="24.9" r="24"/>
	<g id="Group_752" transform="translate(-59.185 -250.937)">
		<path id="Path_1446" class="st1" d="M298.5,282.9h-5.2c5.1-2.5,7.2-8.7,4.7-13.9s-8.7-7.2-13.9-4.7s-7.2,8.7-4.7,13.9
			c1,2,2.6,3.7,4.7,4.7h-5.2c-1.5,0-2.7,1.2-2.7,2.7v2.2c0,0.3,0.2,0.5,0.5,0.5h23.9c0.3,0,0.5-0.2,0.5-0.5v-2.2
			C301.2,284.1,300,282.9,298.5,282.9z M279.5,273.6c0-5.1,4.1-9.2,9.2-9.2s9.2,4.1,9.2,9.2s-4.1,9.2-9.2,9.2
			C283.6,282.9,279.5,278.7,279.5,273.6z M300.2,287.2h-22.9v-1.6c0-0.9,0.7-1.6,1.6-1.6h19.6c0.9,0,1.6,0.7,1.6,1.6V287.2z"/>
		<path id="Path_1447" class="st1" d="M294.7,273.6c0-3.3-2.7-6-6-6s-6,2.7-6,6c0,3.3,2.7,6,6,6l0,0
			C292,279.6,294.7,276.9,294.7,273.6z M283.8,273.6c0-2.7,2.2-4.9,4.9-4.9c2.7,0,4.9,2.2,4.9,4.9c0,2.7-2.2,4.9-4.9,4.9
			S283.8,276.3,283.8,273.6C283.8,273.6,283.8,273.6,283.8,273.6z"/>
		<path id="Path_1448" class="st1" d="M291.4,273.6c0-1.5-1.2-2.7-2.7-2.7c-1.5,0-2.7,1.2-2.7,2.7c0,1.5,1.2,2.7,2.7,2.7l0,0
			C290.2,276.4,291.4,275.1,291.4,273.6z M287.1,273.6c0-0.9,0.7-1.6,1.6-1.6c0.9,0,1.6,0.7,1.6,1.6c0,0.9-0.7,1.6-1.6,1.6
			C287.8,275.3,287.1,274.5,287.1,273.6L287.1,273.6z"/>
	</g>
</g>
<g>
	<circle id="Ellipse_110" class="st3" cx="297.5" cy="24.9" r="24"/>
	<g id="Group_756" transform="translate(-59.185 -250.937)">
		<g id="Group_755">
			<path id="Path_1449" class="st1" d="M361.3,278.1l-3.6-2.7v-5.5c0-0.5-0.4-1-1-1c-0.5,0-1,0.4-1,1c0,0,0,0,0,0.1v5.9
				c0,0.3,0.1,0.6,0.4,0.8l4,3c0.4,0.3,1.1,0.2,1.4-0.2S361.7,278.4,361.3,278.1L361.3,278.1z"/>
		</g>
	</g>
	<g id="Group_758" transform="translate(-59.185 -250.937)">
		<g id="Group_757">
			<path id="Path_1450" class="st1" d="M356.7,263c-7.1,0-12.8,5.7-12.8,12.8c0,7.1,5.7,12.8,12.8,12.8c7.1,0,12.8-5.7,12.8-12.8v0
				C369.5,268.7,363.8,263,356.7,263z M356.7,286.6c-6,0-10.8-4.8-10.8-10.8c0-6,4.8-10.8,10.8-10.8c6,0,10.8,4.8,10.8,10.8
				C367.5,281.8,362.7,286.6,356.7,286.6z"/>
		</g>
	</g>
</g>
<g>
	<circle id="Ellipse_111" class="st4" cx="161.5" cy="24.9" r="24"/>
	<g id="Group_764" transform="translate(-59.185 -250.937)">
		<g id="Group_763">
			<g id="Group_762">
				<path id="Path_1451" class="st1" d="M218,277.6h-8.5c-0.5,0-0.9,0.4-0.9,0.9v8.5c0,0.5,0.4,0.9,0.9,0.9h8.5
					c0.5,0,0.9-0.4,0.9-0.9l0,0v-8.5C219,278,218.5,277.6,218,277.6z M217.1,286h-6.6v-6.6h6.6V286z"/>
				<path id="Path_1452" class="st1" d="M223,277.8c-0.4-0.4-1-0.3-1.3,0c-0.3,0.4-0.3,0.9,0,1.3l8.1,8.1c0.4,0.4,1,0.3,1.3,0
					c0.3-0.4,0.4-0.9,0-1.3L223,277.8z"/>
				<path id="Path_1453" class="st1" d="M232.7,273.8l-4.8-9.5c-0.2-0.5-0.8-0.7-1.3-0.4c-0.2,0.1-0.3,0.2-0.4,0.4l-4.8,9.5
					c-0.2,0.5,0,1,0.4,1.3c0.1,0.1,0.3,0.1,0.4,0.1h9.5c0.5,0,0.9-0.4,0.9-0.9C232.8,274,232.8,273.9,232.7,273.8z M223.9,273.2
					l3.2-6.5l3.2,6.5H223.9z"/>
				<path id="Path_1454" class="st1" d="M214.3,263.7c-3.2,0-5.7,2.6-5.7,5.7s2.6,5.7,5.7,5.7c3.2,0,5.7-2.6,5.7-5.7
					C220,266.3,217.5,263.7,214.3,263.7z M214.3,273.2c-2.1,0-3.8-1.7-3.8-3.8s1.7-3.8,3.8-3.8c2.1,0,3.8,1.7,3.8,3.8
					C218.1,271.5,216.4,273.2,214.3,273.2L214.3,273.2z"/>
			</g>
		</g>
	</g>
</g>
<g>
	<circle id="Ellipse_112" class="st5" cx="93.5" cy="24.9" r="24"/>
	<g id="Group_768" transform="translate(-59.185 -250.937)">
		<g id="Group_767">
			<path id="Path_1455" class="st1" d="M149.6,288.6c-0.3,0-0.5-0.2-0.5-0.5v-0.9c0-0.3-0.1-0.6-0.3-0.9l-1.1-1.5
				c-0.6-0.9-1.1-1.8-1.6-2.8c-0.8-1.9-2-3.7-3.4-5.2c-0.1-0.1-0.1-0.1-0.1-0.2c-0.1-0.4,0-0.9,0.2-1.3c0.5-0.7,1.5-1,2.9-1
				c1.3,0.1,2.4,0.7,3.2,1.7v-9.7c0-1.2,1-2.1,2.1-2.1c0.4,0,0.8,0.1,1.2,0.4c0.4-1.1,1.6-1.7,2.7-1.3c0.6,0.2,1.1,0.7,1.3,1.3
				c1-0.7,2.3-0.4,3,0.6c0.2,0.4,0.4,0.8,0.4,1.2v2.4c0.3-0.2,0.7-0.3,1.1-0.3c1.2,0,2.2,0.9,2.2,2.1c0,0,0,0,0,0v7.5l-0.1,2.1
				c-0.1,2.3-1,4.5-2.4,6.2c-0.2,0.3-0.4,0.6-0.4,1v0.9c0,0.3-0.2,0.5-0.5,0.5c-0.3,0-0.5-0.2-0.5-0.5v-0.9c0-0.6,0.2-1.2,0.6-1.7
				c1.3-1.6,2.1-3.5,2.2-5.6l0.1-2v-7.4c0-0.6-0.5-1.1-1.1-1.1c-0.6,0-1.1,0.4-1.1,1c0,0,0,0,0,0v6.4c0,0.3-0.2,0.5-0.5,0.5
				c-0.3,0-0.5-0.2-0.5-0.5v-10.7c0-0.6-0.5-1.1-1.1-1.1c-0.6,0-1.1,0.5-1.1,1.1v10.7c0,0.3-0.2,0.5-0.5,0.5c-0.3,0-0.5-0.2-0.5-0.5
				v-11.7c0-0.6-0.5-1.1-1.1-1.1c-0.6,0-1.1,0.5-1.1,1.1v11.7c0,0.3-0.2,0.5-0.5,0.5c-0.3,0-0.5-0.2-0.5-0.5v-10.7
				c0-0.6-0.5-1.1-1.1-1.1c-0.6,0-1.1,0.5-1.1,1.1v11.5c0,0.3-0.2,0.5-0.5,0.5c-0.2,0-0.4-0.1-0.5-0.3c0,0-1.3-2.6-3.3-2.6
				c-1.5,0-1.9,0.4-2.1,0.5c-0.1,0.1-0.1,0.2-0.1,0.3c1.5,1.6,2.6,3.4,3.5,5.4c0.4,0.9,0.9,1.8,1.5,2.6l1.1,1.5
				c0.3,0.4,0.5,1,0.5,1.5v0.9C150.1,288.4,149.9,288.6,149.6,288.6L149.6,288.6z"/>
		</g>
	</g>
</g>
</svg>
