<?xml version="1.0" encoding="utf-8"?>
<!-- Generator: Adobe Illustrator 25.4.1, SVG Export Plug-In . SVG Version: 6.00 Build 0)  -->
<svg version="1.1" id="Layer_1" xmlns="http://www.w3.org/2000/svg" xmlns:xlink="http://www.w3.org/1999/xlink" x="0px" y="0px"
	 viewBox="0 0 46.1 38.7" style="enable-background:new 0 0 46.1 38.7;" xml:space="preserve">
<style type="text/css">
	.st0{fill:#373331;}
	.st1{display:none;}
	.st2{display:inline;fill:#373331;stroke:#373331;stroke-width:0.2;stroke-miterlimit:10;}
	.st3{display:inline;}
	.st4{fill:#373331;stroke:#373331;stroke-width:0.2;stroke-miterlimit:10;}
</style>
<g id="Expanded">
	<g>
		<g>
			<path class="st0" d="M42,35.4H4.3c-2.1,0-3.8-1.7-3.8-3.8V9c0-2.1,1.7-3.8,3.8-3.8H42c2.1,0,3.8,1.7,3.8,3.8v22.7
				C45.8,33.7,44.1,35.4,42,35.4z M4.3,7.1c-1,0-1.8,0.9-1.8,1.8v22.7c0,1,0.9,1.8,1.8,1.8H42c1,0,1.8-0.9,1.8-1.8V9
				c0-1-0.9-1.8-1.8-1.8H4.3V7.1z"/>
		</g>
		<g>
			<path class="st0" d="M23.1,25.2L6.6,14.4c-0.5-0.2-0.6-0.9-0.2-1.4c0.2-0.4,0.7-0.5,1.2-0.1l15.5,10.1L38.7,13
				c0.5-0.2,1-0.1,1.4,0.2c0.2,0.5,0.1,1-0.2,1.4L23.1,25.2z"/>
		</g>
		<g>
			<path class="st0" d="M6.1,29.7c-0.2,0-0.6-0.1-0.7-0.4c-0.2-0.5-0.1-1,0.2-1.4l8.5-5.7c0.5-0.2,1-0.1,1.4,0.2
				c0.2,0.5,0.1,1-0.2,1.4l-8.5,5.7C6.5,29.7,6.4,29.7,6.1,29.7z"/>
		</g>
		<g>
			<path class="st0" d="M40.1,29.7c-0.1,0-0.4,0-0.5-0.1l-8.5-5.7c-0.5-0.2-0.5-0.9-0.2-1.4c0.2-0.5,0.9-0.5,1.4-0.2l8.5,5.7
				c0.5,0.2,0.5,0.9,0.2,1.4C40.8,29.6,40.4,29.7,40.1,29.7z"/>
		</g>
	</g>
</g>
<g class="st1">
	<path class="st2" d="M8.9,38.2c-0.6-0.3-1.1-0.7-1.2-1.4v-0.1c-0.1-0.2,0.2-0.4,0-0.5C7.5,36,7.3,36,7.1,35.9
		c-2.5-0.6-3.9-2.5-4-5.1c0-1.1,0.3-2.2,0.5-3.2c0.3-1.5,0.7-3,1.1-4.5c0.9-3.6,3.9-6,7.6-6c0.1,0,0.2,0,0.4,0
		c-0.1-0.2-0.3-0.3-0.4-0.4c-1.8-2.3-2.4-4.9-1.6-7.7c0.4-1.3,0.7-2.6,1.3-3.9c1.3-2.7,3.5-4.2,6.4-4.6c3.6-0.4,7,1.8,8.3,5.2
		c0.5,1.3,0.9,2.7,1.2,4.1c0.5,2.5-0.2,4.8-1.8,6.8c-0.1,0.1-0.2,0.2-0.3,0.4c0.7,0,1.2,0,1.8,0.1c3.3,0.7,5.4,2.7,6.2,5.9
		c0.2,0.8,0.4,1.6,0.6,2.4c0.1,0.5,0,0.8-0.4,0.9s-0.6-0.1-0.7-0.6c-0.2-0.8-0.4-1.5-0.5-2.3c-0.6-2.7-2.8-4.8-5.6-5.1
		c-0.9-0.1-1.8,0-2.6,0c-0.1,0-0.2,0.1-0.3,0.1c-1.7,1-3.6,1.3-5.5,1.2c-1.5-0.1-3-0.5-4.3-1.3c-0.1,0-0.2-0.1-0.2-0.1
		c-1.1,0-2.2-0.1-3.2,0.1c-2.7,0.6-4.4,2.4-5.1,5.1c-0.5,1.8-0.9,3.7-1.3,5.5c-0.3,1.3-0.4,2.5,0.2,3.7c0.6,1.2,1.6,1.8,2.8,2
		c0.2,0,0.2,0,0.2-0.2c-0.2-3.9,0-7.7-0.1-11.6c0-0.3,0-0.6,0.1-0.8c0.3-0.9,1-1.3,2-1.3c4.5,0,9.1,0,13.6,0c1.8,0,3.6,0,5.4,0
		c0.8,0,1.4,0.3,1.8,1c0.2,0.4,0.2,0.8,0.2,1.1c0,3.6,0,7.2,0,10.9c0,0.2,0,0.4-0.1,0.6c-0.1,0.3,0,0.3,0.3,0.2
		c2.3-0.5,3.4-2.3,3.2-4.5c0-0.6-0.2-1.1-0.3-1.7c-0.1-0.4,0.1-0.6,0.4-0.7c0.3-0.1,0.6,0.1,0.7,0.4c0.5,1.5,0.6,3,0,4.5
		c-0.7,1.8-2.1,2.7-3.9,3.1c-0.3,0.1-0.4,0.1-0.4,0.5c0.1,0.6-0.2,1.1-0.7,1.5c-0.1,0.1-0.3,0.2-0.4,0.2
		C22.8,38.2,15.8,38.2,8.9,38.2z M19.3,37c3.2,0,6.4,0,9.5,0c0.2,0,0.3,0,0.5,0c0.2-0.1,0.3-0.2,0.3-0.4s-0.1-0.4-0.4-0.5
		c-0.2,0-0.3,0-0.5,0c-4.5,0-8.9,0-13.4,0c-0.1,0-0.3,0-0.4,0c-0.4,0-0.6-0.3-0.5-0.7c0.1-0.3,0.3-0.5,0.7-0.5c4.4,0,8.7,0,13.1,0
		c0.1,0,0.3,0,0.4,0c0.8-0.1,1-0.3,1-1.1c0-3.6,0-7.2,0-10.8c0-0.7-0.2-0.9-0.9-0.9c-6.3,0-12.7,0-19,0c-0.7,0-0.9,0.2-0.9,0.9
		c0,3.6,0,7.3,0,10.9c0,0.7,0.3,0.9,0.9,0.9c0.6,0,1.2,0,1.9,0c0.4,0,0.7,0.2,0.7,0.6c0,0.4-0.2,0.6-0.7,0.6c-0.7,0-1.3,0-2,0
		c-0.1,0-0.2,0-0.4,0s-0.4,0.2-0.4,0.4C8.9,36.8,9,37,9.3,37c0.1,0,0.3,0,0.4,0C12.9,37,16.1,37,19.3,37z M26.6,9.2
		c-0.3-1-0.6-2-0.9-3c-1.1-3-4.2-4.9-7.3-4.4c-2.7,0.4-4.5,2-5.5,4.5C12.5,7.1,12.3,8,12,8.9c0,0.1-0.1,0.2,0,0.2
		c0.3-0.2,0.5-0.4,0.8-0.5c0.3-0.2,0.6-0.4,0.8-0.5c0.7-0.4,1.2-0.1,1.2,0.7s0,1.7,0,2.5c0,0.4,0,0.9,0.1,1.3c0.3,2,2.3,3.9,5,3.6
		c2.1-0.2,3.8-2.2,3.9-4.4c0-0.8,0-1.6,0-2.5c0-0.4-0.1-0.6-0.5-0.8c-1.9-0.8-3.9-0.9-5.9-0.5c-0.4,0.1-0.7-0.1-0.8-0.5
		c-0.1-0.3,0.1-0.6,0.5-0.7c2.5-0.4,4.9-0.2,7.1,0.9C25.1,8.1,25.8,8.6,26.6,9.2z M25,9.5c0,0.2,0,0.4,0,0.5c0,0.9,0.1,1.8-0.1,2.7
		c-0.5,2.8-3,4.7-5.8,4.6c-2.7-0.1-5.1-2.3-5.4-4.9c-0.1-0.8,0-1.7-0.1-2.5c0-0.1,0.1-0.3-0.1-0.3c-0.1-0.1-0.2,0.1-0.3,0.1
		c-0.5,0.4-1,0.8-1.4,1.2c-0.2,0.2-0.2,0.4-0.2,0.6c0.1,2.1,0.9,3.9,2.5,5.3c2.1,1.8,4.6,2.1,7.2,1.5c3-0.6,5.2-3.1,5.6-6.2
		c0-0.3,0.1-0.6-0.1-0.9C26.3,10.6,25.7,10,25,9.5z"/>
	<path class="st2" d="M28.8,25.7c0,0.6,0,1.3,0,1.9c0,0.5-0.2,0.7-0.6,0.7s-0.6-0.2-0.6-0.7c0-1,0-2.1,0-3.1c0-0.3-0.1-0.4-0.4-0.4
		c-1.1,0-2.1,0-3.2,0c-0.3,0-0.6-0.1-0.7-0.4s0.1-0.6,0.4-0.7c0.1,0,0.1,0,0.2,0c1.4,0,2.7,0,4.1,0c0.5,0,0.6,0.2,0.7,0.7
		C28.8,24.4,28.8,25,28.8,25.7z"/>
</g>
<g id="B7R1hf.tif" class="st1">
	<g class="st3">
		<path class="st4" d="M-77.4-1.4c0-3.8,0-7.6,0-11.4c0-1.1,0.7-1.8,1.8-1.8c2.3,0,4.6,0,6.9,0c0.3,0,0.3,0,0.3-0.3
			c0-0.8,0-1.6,0-2.4c0-0.9,0.5-1.5,1.3-1.7c0.1,0,0.2,0,0.4,0c4.4,0,8.8,0,13.2,0c0.6,0,1,0.2,1.4,0.6c1,1,1.9,1.9,2.9,2.9
			c0.2,0.2,0.4,0.4,0.4,0.7c0,0.2,0.1,0.2,0.3,0.2c2.1,0,4.3,0,6.4,0c0.3,0,0.6,0,0.9,0c0.9,0.1,1.4,0.8,1.4,1.6c0,2.2,0,4.4,0,6.6
			c0,5.4,0,10.9,0,16.3c0,0.5-0.2,1-0.6,1.4c-0.4,0.3-0.8,0.4-1.2,0.4c-3.3,0-6.5,0-9.8,0c-1.4,0-2.9,0-4.3,0c-0.3,0-0.3,0-0.2,0.3
			c0.2,0.7,0.4,1.3,0.5,2c0,0.2,0.1,0.2,0.3,0.2c0.5,0,1.1,0,1.6,0c1.6,0.1,2.9,1.4,3.1,3c0,0.1,0,0.3,0,0.4c0,0.4-0.2,0.7-0.7,0.7
			c-1.3,0-2.5,0-3.8,0c-3.8,0-7.5,0-11.3,0h-0.1c-0.5,0-0.7-0.2-0.7-0.7c0-1,0.5-1.9,1.3-2.6c0.7-0.6,1.5-0.8,2.3-0.8
			c0.4,0,0.8,0,1.2,0c0.2,0,0.2,0,0.3-0.2c0.2-0.7,0.4-1.4,0.5-2.1c0.1-0.2,0-0.2-0.2-0.2c-2.2,0-4.5,0-6.7,0c-2.5,0-4.9,0-7.4,0
			c-0.7,0-1.2-0.2-1.6-0.8c-0.2-0.3-0.2-0.6-0.2-0.9C-77.4,6.2-77.4,2.4-77.4-1.4z M-58.6,6.6c5.7,0,11.5,0,17.2,0
			c0.3,0,0.3,0,0.3-0.3c0-6.4,0-12.7,0-19.1c0-0.4-0.1-0.5-0.5-0.5c-2.3,0-4.6,0-6.9,0c-0.3,0-0.3,0-0.3,0.3c0,3,0,6.1,0,9.1
			c0,2.3,0,4.6,0,6.9c0,1.1-0.7,1.7-1.8,1.7c-0.6,0-1.2,0-1.8,0c-4.8,0-9.7,0-14.5,0c-0.3,0-0.6-0.1-0.9-0.2
			c-0.6-0.4-0.8-0.9-0.8-1.6c0-5.3,0-10.6,0-15.9c0-0.3,0-0.3-0.3-0.3c-2.2,0-4.5,0-6.7,0c-0.6,0-0.7,0-0.7,0.7c0,5.2,0,10.3,0,15.5
			c0,1.2,0,2.3,0,3.5c0,0.2,0.1,0.3,0.2,0.2c0.1,0,0.1,0,0.2,0C-70,6.6-64.3,6.6-58.6,6.6z M-67.2-7.1c0,3.4,0,6.8,0,10.1
			c0,0.4,0.1,0.5,0.5,0.5c5.4,0,10.8,0,16.3,0c0.4,0,0.5-0.1,0.5-0.5c0-1.6,0-3.2,0-4.8c0-4,0-8,0-12c0-0.2-0.1-0.3-0.3-0.3
			c-0.9,0-1.7,0-2.6,0c-0.5,0-0.8-0.2-0.8-0.8c0-0.9,0-1.7,0-2.6c0-0.3,0-0.3-0.3-0.3c-4.3,0-8.5,0-12.8,0c-0.5,0-0.6,0.1-0.6,0.6
			C-67.2-13.8-67.2-10.5-67.2-7.1z M-58.6,7.8c-5.8,0-11.5,0-17.3,0c-0.3,0-0.3,0-0.3,0.3c0,0.7,0,1.3,0,2c0,0.4,0.1,0.5,0.5,0.5
			c0.1,0,0.2,0,0.3,0c6.2,0,12.4,0,18.6,0c5.1,0,10.1,0,15.2,0c0.4,0,0.5-0.1,0.5-0.5c0-0.6,0-1.3,0-1.9c0-0.3,0-0.3-0.3-0.3
			C-47.1,7.8-52.8,7.8-58.6,7.8z M-58.6,17.2L-58.6,17.2c2.2,0,4.5,0,6.7,0c0.3,0,0.3,0,0.2-0.3c-0.3-0.8-1.2-1.4-2.1-1.4
			c-3.2,0-6.4,0-9.5,0c-0.1,0-0.3,0-0.4,0c-0.8,0.2-1.4,0.7-1.7,1.5c-0.1,0.2,0,0.2,0.1,0.2h0.1C-63,17.2-60.8,17.2-58.6,17.2z
			 M-58.6,14.3c0.6,0,1.2,0,1.8,0c0.2,0,0.2,0,0.2-0.2c-0.2-0.7-0.4-1.4-0.6-2.1c0-0.1-0.1-0.2-0.3-0.2c-0.7,0-1.5,0-2.2,0
			c-0.1,0-0.2,0-0.3,0.2c-0.2,0.7-0.4,1.4-0.6,2.1c0,0.2,0,0.2,0.2,0.2C-59.8,14.3-59.2,14.3-58.6,14.3z M-52.4-16.8
			c0,0.5,0,0.9,0,1.4c0,0.1,0.1,0.1,0.2,0.1c0.4,0,0.8,0,1.3,0h0.1C-51.4-15.8-51.9-16.3-52.4-16.8z"/>
		<path class="st4" d="M-61.8-6.6c0,0.4,0,0.8,0,1.2s-0.2,0.7-0.7,0.7c-0.8,0-1.6,0-2.4,0c-0.4,0-0.7-0.3-0.7-0.7c0-0.8,0-1.6,0-2.4
			c0-0.4,0.3-0.7,0.7-0.7c0.8,0,1.6,0,2.3,0c0.5,0,0.7,0.2,0.7,0.7C-61.8-7.3-61.8-7-61.8-6.6z M-63.6-5.9c0.2,0,0.3,0,0.5,0
			c0.1,0,0.2,0,0.2-0.2c0-0.3,0-0.6,0-0.9c0-0.1,0-0.2-0.2-0.2c-0.3,0-0.6,0-0.9,0c-0.1,0-0.2,0.1-0.2,0.2s0,0.3,0,0.4
			C-64.3-5.9-64.3-5.9-63.6-5.9L-63.6-5.9z"/>
		<path class="st4" d="M-63.6,0.5c-0.4,0-0.8,0-1.2,0c-0.4,0-0.6-0.2-0.6-0.6c0-0.8,0-1.6,0-2.5c0-0.4,0.2-0.6,0.6-0.6
			c0.7-0.1,1.3,0,2,0c0.2,0,0.4,0,0.6,0c0.3,0,0.5,0.3,0.5,0.6c0,0.8,0,1.7,0,2.5c0,0.3-0.3,0.6-0.6,0.6
			C-62.8,0.5-63.2,0.5-63.6,0.5L-63.6,0.5z M-63.6-0.7c0.2,0,0.3,0,0.5,0c0.1,0,0.2,0,0.2-0.2c0-0.3,0-0.6,0-0.9
			c0-0.1,0-0.2-0.2-0.2c-0.3,0-0.6,0-1,0c-0.1,0-0.2,0.1-0.2,0.2c0,0.3,0,0.6,0,0.9c0,0.1,0.1,0.2,0.2,0.2
			C-63.9-0.7-63.8-0.7-63.6-0.7z"/>
		<path class="st4" d="M-55.9-2c1.2,0,2.4,0,3.5,0c0.4,0,0.6,0.2,0.7,0.5c0.1,0.4-0.2,0.7-0.7,0.7c-0.9,0-1.8,0-2.7,0
			c-1.4,0-2.9,0-4.3,0c-0.1,0-0.2,0-0.3,0c-0.3-0.1-0.5-0.3-0.5-0.6S-60-1.9-59.7-2c0.1,0,0.1,0,0.2,0C-58.2-2-57-2-55.9-2z"/>
		<path class="st4" d="M-55.9-12.4c1.2,0,2.4,0,3.5,0c0.4,0,0.7,0.2,0.7,0.6c0,0.3-0.2,0.6-0.5,0.6c-0.1,0-0.2,0-0.2,0
			c-2.4,0-4.7,0-7.1,0c-0.3,0-0.5-0.1-0.6-0.3c-0.2-0.4,0.1-0.9,0.6-0.9c0.6,0,1.2,0,1.8,0C-57-12.4-56.4-12.4-55.9-12.4z"/>
		<path class="st4" d="M-55.9-7.2c1.2,0,2.4,0,3.6,0c0.3,0,0.5,0.2,0.6,0.4c0.1,0.4-0.2,0.8-0.6,0.8c-0.5,0-1.1,0-1.6,0
			c-1.9,0-3.7,0-5.6,0c-0.4,0-0.6-0.2-0.7-0.6c0-0.3,0.2-0.6,0.6-0.6c0.5,0,0.9,0,1.4,0C-57.4-7.2-56.6-7.2-55.9-7.2z"/>
		<path class="st4" d="M-64.1-10.3c-0.2,0-0.3-0.1-0.4-0.2c-0.3-0.3-0.6-0.6-0.9-0.9c-0.2-0.2-0.2-0.6,0-0.8s0.6-0.3,0.9,0
			c0.1,0.1,0.2,0.2,0.3,0.3c0.1,0.1,0.2,0.1,0.3,0c0.4-0.4,0.8-0.8,1.2-1.2c0.2-0.2,0.4-0.2,0.6-0.2c0.2,0.1,0.4,0.2,0.4,0.5
			c0,0.2,0,0.4-0.2,0.5c-0.6,0.6-1.2,1.2-1.8,1.8C-63.8-10.4-63.9-10.3-64.1-10.3z"/>
	</g>
</g>
<g class="st1">
	<g class="st3">
		<path class="st0" d="M228.6,35.3c0,1.8-0.8,3.2-2.5,3.9c-0.8,0.4-1.7,0.7-2.5,1c-0.5,0.2-1,0.1-1.2-0.4s0.2-0.8,0.6-0.9
			c0.7-0.3,1.5-0.6,2.3-0.9c1.5-0.6,2.2-1.8,1.8-3.4c-0.7-2.7-1.5-5.3-2.3-7.9c-0.4-1.2-0.7-2.5-1.1-3.7c-0.3-1-0.9-1.7-1.8-2.2
			c-0.9-0.5-1.9-1.1-2.7-1.7c-0.6-0.4-0.8-0.2-0.9,0.4c0,0.1-0.1,0.2-0.1,0.3c-0.2,2.2-1.9,3.1-3.6,3.9c-0.5,0.2-1,0.3-1.3-0.3
			c-0.3-0.5,0.1-0.9,0.6-1.1c2-0.7,2.8-2.3,3.2-4.2c0.3-1.4,0.9-2.9,1.3-4.3c0.3-0.9,0.2-1.6-0.3-2.4c-1.6-2.4-3.2-4.8-4.8-7.2
			c-2-2.9-5.8-2.9-7.7,0S202,10,200.2,13c-0.4,0.6-0.3,1.3-0.1,1.9c0.7,1.7,1.4,3.4,2.2,5c0.5,1,1.4,1.6,2.2,2.3
			c0.4,0.4,0.9,0.8,0.3,1.4c-0.5,0.5-1,0.1-1.3-0.3c-1.4-1.2-2.6-2.4-3.1-4.2c-0.2-0.6-0.5-0.7-1-0.3c-1.2,0.8-2.4,1.5-3.6,2.3
			c-0.7,0.4-1.1,1.1-1.3,1.9c-1.1,3.9-2.3,7.8-3.4,11.8c-0.4,1.4,0.4,2.9,1.9,3.4c0.7,0.3,1.5,0.5,2.2,0.8c0.4,0.2,0.7,0.5,0.5,1
			s-0.6,0.6-1,0.4c-1-0.4-2.1-0.7-3.1-1.2c-1.7-1-2.5-2.9-1.9-4.8c1.1-4,2.3-8,3.5-12c0.3-1.1,1-2,2-2.7c1.2-0.8,2.4-1.5,3.6-2.3
			c0.5-0.3,0.7-0.6,0.4-1.2c-0.9-1.8-0.7-3.4,0.4-5c1.7-2.5,3.2-5.2,4.8-7.8c2.3-3.6,7.4-3.9,10-0.4c1.9,2.6,3.6,5.4,5.4,8.1
			c0.6,0.9,0.5,1.9,0.2,2.8c-0.2,0.8-0.4,1.6-0.7,2.3c-0.2,0.6-0.1,0.9,0.5,1.2c1.1,0.6,2.1,1.3,3.2,1.9c1.1,0.7,1.9,1.6,2.2,2.8
			c1.2,3.9,2.3,7.8,3.4,11.7C228.5,34.4,228.6,34.9,228.6,35.3z"/>
		<path class="st0" d="M209.1,24.9c3.7,0,7.4,0,11.1,0c1.2,0,1.3,0.1,1.3,1.3c0,4.3,0,8.6,0,12.9c0,1-0.2,1.2-1.4,1.2
			c-6.9,0-13.8,0-20.7,0c-0.6,0-1.2,0-1.8,0c-0.7,0-1.1-0.3-1.1-1.1c0-4.5,0-8.9,0-13.4c0-0.9,0.6-1,1.3-1
			C201.6,24.9,205.4,24.9,209.1,24.9L209.1,24.9z M209,38.9c3.3,0,6.7,0,10,0c0.8,0,1.1-0.3,1.1-1.1c0-3.5,0-7,0-10.5
			c0-0.8-0.3-1-1-1c-6.7,0-13.4,0-20,0c-0.8,0-1.1,0.3-1.1,1.1c0,3.5,0,6.9,0,10.4c0,0.9,0.3,1.1,1.1,1.1
			C202.4,38.9,205.7,38.9,209,38.9z"/>
		<path class="st0" d="M209.1,40.9c3.6,0,7.2,0,10.8,0c0.3,0,0.5,0,0.8,0c0.4,0.1,0.9,0.2,0.9,0.7s-0.4,0.7-0.8,0.8
			c-0.4,0-0.7,0.1-1.1,0.1c-3.7-0.2-7.4,0.1-11.2-0.1c-3.5-0.1-7,0-10.5,0.1c-0.4,0-0.7,0-1-0.2s-0.5-0.4-0.4-0.7s0.3-0.5,0.6-0.6
			s0.7-0.1,1.1-0.1C201.8,40.9,205.5,40.9,209.1,40.9z"/>
		<path class="st0" d="M209.2,21.5c-2,0-3-0.6-3.7-2.4c-0.5-1.2-1-2.4-1.4-3.6c-0.2-0.5-0.2-0.9,0.3-1.1c0.6-0.2,0.8,0.2,1,0.6
			c0.5,1.2,1,2.5,1.5,3.7s1,1.4,2.5,1.4c1-0.1,1.5-0.6,1.9-1.5c0.4-1.2,1-2.3,1.5-3.5c0.2-0.4,0.5-0.9,1-0.6
			c0.6,0.2,0.5,0.7,0.3,1.2c-0.5,1.2-1,2.4-1.5,3.6C212.1,20.8,210.9,21.6,209.2,21.5z"/>
		<path class="st0" d="M209.2,9.6c0.6,0,1.1,0.2,1.6,0.5c1.6,1.1,3.2,2.1,4.9,3.2c0.4,0.3,0.8,0.7,0.4,1.2c-0.4,0.5-0.8,0.4-1.3,0.1
			c-1.5-1-2.9-1.9-4.4-2.9c-0.8-0.6-1.6-0.6-2.4,0c-1.4,1-2.9,1.9-4.3,2.8c-0.5,0.3-1,0.6-1.4,0s0.1-1,0.5-1.2c1.5-1,3.1-2,4.6-3
			C208,9.8,208.5,9.6,209.2,9.6z"/>
	</g>
</g>
</svg>
