<svg id="Component_119_2" data-name="Component 119 – 2" xmlns="http://www.w3.org/2000/svg" width="41.371" height="20" viewBox="0 0 41.371 20">
  <path id="Rectangle_7729" data-name="Rectangle 7729" d="M0,0H38.371a3,3,0,0,1,3,3V20a0,0,0,0,1,0,0H15A15,15,0,0,1,0,5V0A0,0,0,0,1,0,0Z" fill="#63b8c4"/>
  <path id="e5ede8d281b71484ee42f15f6c10d32a" d="M12.336,8.047v-2.6a1.786,1.786,0,1,0-1.191,0v2.6a1.786,1.786,0,1,0,1.191,0Zm-.6-4.864a.594.594,0,1,1-.6.594A.595.595,0,0,1,11.741,3.183Zm0,7.132a.594.594,0,1,1,.569-.594A.6.6,0,0,1,11.741,10.315ZM7.573,3.777A1.786,1.786,0,1,0,5.191,5.45v2.6a1.786,1.786,0,1,0,1.191,0v-2.6A1.783,1.783,0,0,0,7.573,3.777ZM5.786,3.183a.594.594,0,1,1-.6.594A.595.595,0,0,1,5.786,3.183Zm0,7.132a.594.594,0,1,1,.6-.594A.595.595,0,0,1,5.786,10.315Z" transform="translate(12.15 3.264)" fill="#fff"/>
</svg>
