<?xml version="1.0" encoding="utf-8"?>
<!-- Generator: Adobe Illustrator 25.4.1, SVG Export Plug-In . SVG Version: 6.00 Build 0)  -->
<svg version="1.1" id="Layer_1" xmlns="http://www.w3.org/2000/svg" xmlns:xlink="http://www.w3.org/1999/xlink" x="0px" y="0px"
	 viewBox="0 0 50.6 50.6" style="enable-background:new 0 0 50.6 50.6;" xml:space="preserve">
<style type="text/css">
	.st0{display:none;}
	.st1{display:inline;}
	.st2{fill:#373331;}
	.st3{fill:#373331;stroke:#373331;stroke-width:0.3;stroke-miterlimit:10;}
	.st4{fill:#373331;stroke:#373331;stroke-width:0.2;stroke-miterlimit:10;}
</style>
<g id="Expanded" class="st0">
	<g class="st1">
		<g>
			<path class="st2" d="M124.8,43.2h-40c-2.2,0-4-1.8-4-4v-24c0-2.2,1.8-4,4-4h40c2.2,0,4,1.8,4,4v24
				C128.8,41.4,127,43.2,124.8,43.2z M84.8,13.2c-1.1,0-2,0.9-2,2v24c0,1.1,0.9,2,2,2h40c1.1,0,2-0.9,2-2v-24c0-1.1-0.9-2-2-2
				C124.8,13.2,84.8,13.2,84.8,13.2z"/>
		</g>
		<g>
			<path class="st2" d="M104.8,32.3L87.3,21c-0.5-0.3-0.6-0.9-0.3-1.4c0.3-0.5,0.9-0.6,1.4-0.3l16.5,10.6l16.5-10.6
				c0.5-0.3,1.1-0.2,1.4,0.3s0.2,1.1-0.3,1.4L104.8,32.3z"/>
		</g>
		<g>
			<path class="st2" d="M86.8,37.2c-0.3,0-0.6-0.2-0.8-0.4c-0.3-0.5-0.2-1.1,0.3-1.4l9-6c0.5-0.3,1.1-0.2,1.4,0.3s0.2,1.1-0.3,1.4
				l-9,6C87.2,37.1,87,37.2,86.8,37.2z"/>
		</g>
		<g>
			<path class="st2" d="M122.8,37.2c-0.2,0-0.4-0.1-0.6-0.2l-9-6c-0.5-0.3-0.6-0.9-0.3-1.4c0.3-0.5,0.9-0.6,1.4-0.3l9,6
				c0.5,0.3,0.6,0.9,0.3,1.4C123.5,37,123.2,37.2,122.8,37.2z"/>
		</g>
	</g>
</g>
<g>
	<path class="st3" d="M11.4,50.2c-0.8-0.4-1.5-0.9-1.6-1.8v-0.1c-0.1-0.3,0.3-0.5,0-0.7c-0.3-0.3-0.5-0.3-0.8-0.4
		c-3.3-0.8-5.1-3.3-5.3-6.7c0-1.5,0.4-2.9,0.7-4.2c0.4-2,0.9-4,1.5-5.9c1.2-4.7,5.1-7.9,10-7.9c0.1,0,0.3,0,0.5,0
		c-0.1-0.3-0.4-0.4-0.5-0.5c-2.4-3-3.2-6.5-2.1-10.2c0.5-1.7,0.9-3.4,1.7-5.1c1.7-3.6,4.6-5.5,8.4-6.1c4.7-0.5,9.2,2.4,10.9,6.9
		c0.7,1.7,1.2,3.6,1.6,5.4c0.7,3.3-0.3,6.3-2.4,9c-0.1,0.1-0.3,0.3-0.4,0.5c0.9,0,1.6,0,2.4,0.1c4.4,0.9,7.1,3.6,8.2,7.8
		c0.3,1.1,0.5,2.1,0.8,3.2c0.1,0.7,0,1.1-0.5,1.2c-0.5,0.1-0.8-0.1-0.9-0.8c-0.3-1.1-0.5-2-0.7-3c-0.8-3.6-3.7-6.3-7.4-6.7
		c-1.2-0.1-2.4,0-3.4,0c-0.1,0-0.3,0.1-0.4,0.1c-2.2,1.3-4.7,1.7-7.3,1.6c-2-0.1-4-0.7-5.7-1.7c-0.1,0-0.3-0.1-0.3-0.1
		c-1.5,0-2.9-0.1-4.2,0.1c-3.6,0.8-5.8,3.2-6.7,6.7c-0.7,2.4-1.2,4.9-1.7,7.3c-0.4,1.7-0.5,3.3,0.3,4.9s2.1,2.4,3.7,2.6
		c0.3,0,0.3,0,0.3-0.3c-0.3-5.1,0-10.2-0.1-15.3c0-0.4,0-0.8,0.1-1.1c0.4-1.2,1.3-1.7,2.6-1.7c5.9,0,12,0,17.9,0c2.4,0,4.7,0,7.1,0
		c1.1,0,1.8,0.4,2.4,1.3c0.3,0.5,0.3,1.1,0.3,1.5c0,4.7,0,9.5,0,14.4c0,0.3,0,0.5-0.1,0.8c-0.1,0.4,0,0.4,0.4,0.3
		c3-0.7,4.5-3,4.2-5.9c0-0.8-0.3-1.5-0.4-2.2c-0.1-0.5,0.1-0.8,0.5-0.9c0.4-0.1,0.8,0.1,0.9,0.5c0.7,2,0.8,4,0,5.9
		c-0.9,2.4-2.8,3.6-5.1,4.1c-0.4,0.1-0.5,0.1-0.5,0.7c0.1,0.8-0.3,1.5-0.9,2c-0.1,0.1-0.4,0.3-0.5,0.3
		C29.7,50.2,20.5,50.2,11.4,50.2z M25.1,48.7c4.2,0,8.4,0,12.5,0c0.3,0,0.4,0,0.7,0c0.3-0.1,0.4-0.3,0.4-0.5s-0.1-0.5-0.5-0.7
		c-0.3,0-0.4,0-0.7,0c-5.9,0-11.7,0-17.7,0c-0.1,0-0.4,0-0.5,0c-0.5,0-0.8-0.4-0.7-0.9c0.1-0.4,0.4-0.7,0.9-0.7c5.8,0,11.5,0,17.3,0
		c0.1,0,0.4,0,0.5,0c1.1-0.1,1.3-0.4,1.3-1.5c0-4.7,0-9.5,0-14.2c0-0.9-0.3-1.2-1.2-1.2c-8.3,0-16.7,0-25.1,0
		c-0.9,0-1.2,0.3-1.2,1.2c0,4.7,0,9.6,0,14.4c0,0.9,0.4,1.2,1.2,1.2c0.8,0,1.6,0,2.5,0c0.5,0,0.9,0.3,0.9,0.8c0,0.5-0.3,0.8-0.9,0.8
		c-0.9,0-1.7,0-2.6,0c-0.1,0-0.3,0-0.5,0c-0.3,0-0.5,0.3-0.5,0.5c0.1,0.5,0.3,0.8,0.7,0.8c0.1,0,0.4,0,0.5,0
		C16.7,48.7,20.9,48.7,25.1,48.7z M34.7,12c-0.4-1.3-0.8-2.6-1.2-4c-1.5-4-5.5-6.5-9.6-5.8c-3.6,0.5-5.9,2.6-7.3,5.9
		c-0.5,1.1-0.8,2.2-1.2,3.4c0,0.1-0.1,0.3,0,0.3c0.4-0.3,0.7-0.5,1.1-0.7c0.4-0.3,0.8-0.5,1.1-0.7c0.9-0.5,1.6-0.1,1.6,0.9
		c0,1.1,0,2.2,0,3.3c0,0.5,0,1.2,0.1,1.7c0.4,2.6,3,5.1,6.6,4.7c2.8-0.3,5-2.9,5.1-5.8c0-1.1,0-2.1,0-3.3c0-0.5-0.1-0.8-0.7-1.1
		c-2.5-1.1-5.1-1.2-7.8-0.7c-0.5,0.1-0.9-0.1-1.1-0.7c-0.1-0.4,0.1-0.8,0.7-0.9c3.3-0.5,6.5-0.3,9.4,1.2
		C32.8,10.6,33.7,11.2,34.7,12z M32.6,12.4c0,0.3,0,0.5,0,0.7c0,1.2,0.1,2.4-0.1,3.6c-0.7,3.7-4,6.2-7.6,6.1c-3.6-0.1-6.7-3-7.1-6.5
		c-0.1-1.1,0-2.2-0.1-3.3c0-0.1,0.1-0.4-0.1-0.4c-0.1-0.1-0.3,0.1-0.4,0.1c-0.7,0.5-1.3,1.1-1.8,1.6C15,14.5,15,14.8,15,15
		c0.1,2.8,1.2,5.1,3.3,7c2.8,2.4,6.1,2.8,9.5,2c4-0.8,6.9-4.1,7.4-8.2c0-0.4,0.1-0.8-0.1-1.2C34.3,13.8,33.5,13.1,32.6,12.4z"/>
	<path class="st3" d="M37.6,33.8c0,0.8,0,1.7,0,2.5c0,0.7-0.3,0.9-0.8,0.9s-0.8-0.3-0.8-0.9c0-1.3,0-2.8,0-4.1
		c0-0.4-0.1-0.5-0.5-0.5c-1.5,0-2.8,0-4.2,0c-0.4,0-0.8-0.1-0.9-0.5c-0.1-0.4,0.1-0.8,0.5-0.9c0.1,0,0.1,0,0.3,0c1.8,0,3.6,0,5.4,0
		c0.7,0,0.8,0.3,0.9,0.9C37.6,32,37.6,32.8,37.6,33.8z"/>
</g>
<g id="B7R1hf.tif" class="st0">
	<g class="st1">
		<path class="st4" d="M0.5,30.1c0-3.8,0-7.6,0-11.4c0-1.1,0.7-1.8,1.8-1.8c2.3,0,4.6,0,6.9,0c0.3,0,0.3,0,0.3-0.3
			c0-0.8,0-1.6,0-2.4c0-0.9,0.5-1.5,1.3-1.7c0.1,0,0.2,0,0.4,0c4.4,0,8.8,0,13.2,0c0.6,0,1,0.2,1.4,0.6c1,1,1.9,1.9,2.9,2.9
			c0.2,0.2,0.4,0.4,0.4,0.7c0,0.2,0.1,0.2,0.3,0.2c2.1,0,4.3,0,6.4,0c0.3,0,0.6,0,0.9,0c0.9,0.1,1.4,0.8,1.4,1.6c0,2.2,0,4.4,0,6.6
			c0,5.4,0,10.9,0,16.3c0,0.5-0.2,1-0.6,1.4c-0.4,0.3-0.8,0.4-1.2,0.4c-3.3,0-6.5,0-9.8,0c-1.4,0-2.9,0-4.3,0c-0.3,0-0.3,0-0.2,0.3
			c0.2,0.7,0.4,1.3,0.5,2c0,0.2,0.1,0.2,0.3,0.2c0.5,0,1.1,0,1.6,0c1.6,0.1,2.9,1.4,3.1,3c0,0.1,0,0.3,0,0.4c0,0.4-0.2,0.7-0.7,0.7
			c-1.3,0-2.5,0-3.8,0c-3.8,0-7.5,0-11.3,0h-0.1c-0.5,0-0.7-0.2-0.7-0.7c0-1,0.5-1.9,1.3-2.6c0.7-0.6,1.5-0.8,2.3-0.8
			c0.4,0,0.8,0,1.2,0c0.2,0,0.2,0,0.3-0.2c0.2-0.7,0.4-1.4,0.5-2.1c0.1-0.2,0-0.2-0.2-0.2c-2.2,0-4.5,0-6.7,0c-2.5,0-4.9,0-7.4,0
			c-0.7,0-1.2-0.2-1.6-0.8c-0.2-0.3-0.2-0.6-0.2-0.9C0.5,37.7,0.5,33.9,0.5,30.1z M19.3,38.1c5.7,0,11.5,0,17.2,0
			c0.3,0,0.3,0,0.3-0.3c0-6.4,0-12.7,0-19.1c0-0.4-0.1-0.5-0.5-0.5c-2.3,0-4.6,0-6.9,0c-0.3,0-0.3,0-0.3,0.3c0,3,0,6.1,0,9.1
			c0,2.3,0,4.6,0,6.9c0,1.1-0.7,1.7-1.8,1.7c-0.6,0-1.2,0-1.8,0c-4.8,0-9.7,0-14.5,0c-0.3,0-0.6-0.1-0.9-0.2
			c-0.6-0.4-0.8-0.9-0.8-1.6c0-5.3,0-10.6,0-15.9c0-0.3,0-0.3-0.3-0.3c-2.2,0-4.5,0-6.7,0c-0.6,0-0.7,0-0.7,0.7c0,5.2,0,10.3,0,15.5
			c0,1.2,0,2.3,0,3.5c0,0.2,0.1,0.3,0.2,0.2c0.1,0,0.1,0,0.2,0C7.9,38.1,13.6,38.1,19.3,38.1z M10.7,24.4c0,3.4,0,6.8,0,10.1
			c0,0.4,0.1,0.5,0.5,0.5c5.4,0,10.8,0,16.3,0c0.4,0,0.5-0.1,0.5-0.5c0-1.6,0-3.2,0-4.8c0-4,0-8,0-12c0-0.2-0.1-0.3-0.3-0.3
			c-0.9,0-1.7,0-2.6,0c-0.5,0-0.8-0.2-0.8-0.8c0-0.9,0-1.7,0-2.6c0-0.3,0-0.3-0.3-0.3c-4.3,0-8.5,0-12.8,0c-0.5,0-0.6,0.1-0.6,0.6
			C10.7,17.7,10.7,21,10.7,24.4z M19.3,39.3c-5.8,0-11.5,0-17.3,0c-0.3,0-0.3,0-0.3,0.3c0,0.7,0,1.3,0,2c0,0.4,0.1,0.5,0.5,0.5
			c0.1,0,0.2,0,0.3,0c6.2,0,12.4,0,18.6,0c5.1,0,10.1,0,15.2,0c0.4,0,0.5-0.1,0.5-0.5c0-0.6,0-1.3,0-1.9c0-0.3,0-0.3-0.3-0.3
			C30.8,39.3,25.1,39.3,19.3,39.3z M19.3,48.7L19.3,48.7c2.2,0,4.5,0,6.7,0c0.3,0,0.3,0,0.2-0.3C25.9,47.6,25,47,24.1,47
			c-3.2,0-6.4,0-9.5,0c-0.1,0-0.3,0-0.4,0c-0.8,0.2-1.4,0.7-1.7,1.5c-0.1,0.2,0,0.2,0.1,0.2h0.1C14.9,48.7,17.1,48.7,19.3,48.7z
			 M19.3,45.8c0.6,0,1.2,0,1.8,0c0.2,0,0.2,0,0.2-0.2c-0.2-0.7-0.4-1.4-0.6-2.1c0-0.1-0.1-0.2-0.3-0.2c-0.7,0-1.5,0-2.2,0
			c-0.1,0-0.2,0-0.3,0.2c-0.2,0.7-0.4,1.4-0.6,2.1c0,0.2,0,0.2,0.2,0.2C18.1,45.8,18.7,45.8,19.3,45.8z M25.5,14.7
			c0,0.5,0,0.9,0,1.4c0,0.1,0.1,0.1,0.2,0.1c0.4,0,0.8,0,1.3,0h0.1C26.5,15.7,26,15.2,25.5,14.7z"/>
		<path class="st4" d="M16.1,24.9c0,0.4,0,0.8,0,1.2s-0.2,0.7-0.7,0.7c-0.8,0-1.6,0-2.4,0c-0.4,0-0.7-0.3-0.7-0.7c0-0.8,0-1.6,0-2.4
			c0-0.4,0.3-0.7,0.7-0.7c0.8,0,1.6,0,2.3,0c0.5,0,0.7,0.2,0.7,0.7C16.1,24.2,16.1,24.5,16.1,24.9z M14.3,25.6c0.2,0,0.3,0,0.5,0
			c0.1,0,0.2,0,0.2-0.2c0-0.3,0-0.6,0-0.9c0-0.1,0-0.2-0.2-0.2c-0.3,0-0.6,0-0.9,0c-0.1,0-0.2,0.1-0.2,0.2c0,0.1,0,0.3,0,0.4
			C13.6,25.6,13.6,25.6,14.3,25.6C14.2,25.6,14.2,25.6,14.3,25.6z"/>
		<path class="st4" d="M14.2,32c-0.4,0-0.8,0-1.2,0s-0.6-0.2-0.6-0.6c0-0.8,0-1.6,0-2.5c0-0.4,0.2-0.6,0.6-0.6c0.7-0.1,1.3,0,2,0
			c0.2,0,0.4,0,0.6,0c0.3,0,0.5,0.3,0.5,0.6c0,0.8,0,1.7,0,2.5c0,0.3-0.3,0.6-0.6,0.6C15.1,32,14.7,32,14.2,32L14.2,32z M14.3,30.8
			c0.2,0,0.3,0,0.5,0c0.1,0,0.2,0,0.2-0.2c0-0.3,0-0.6,0-0.9c0-0.1,0-0.2-0.2-0.2c-0.3,0-0.6,0-1,0c-0.1,0-0.2,0.1-0.2,0.2
			c0,0.3,0,0.6,0,0.9c0,0.1,0.1,0.2,0.2,0.2C14,30.8,14.1,30.8,14.3,30.8z"/>
		<path class="st4" d="M22,29.5c1.2,0,2.4,0,3.5,0c0.4,0,0.6,0.2,0.7,0.5c0.1,0.4-0.2,0.7-0.7,0.7c-0.9,0-1.8,0-2.7,0
			c-1.4,0-2.9,0-4.3,0c-0.1,0-0.2,0-0.3,0c-0.3-0.1-0.5-0.3-0.5-0.6c0-0.3,0.2-0.5,0.5-0.6c0.1,0,0.1,0,0.2,0
			C19.7,29.5,20.9,29.5,22,29.5z"/>
		<path class="st4" d="M22,19.1c1.2,0,2.4,0,3.5,0c0.4,0,0.7,0.2,0.7,0.6c0,0.3-0.2,0.6-0.5,0.6c-0.1,0-0.2,0-0.2,0
			c-2.4,0-4.7,0-7.1,0c-0.3,0-0.5-0.1-0.6-0.3c-0.2-0.4,0.1-0.9,0.6-0.9c0.6,0,1.2,0,1.8,0C20.8,19.1,21.4,19.1,22,19.1z"/>
		<path class="st4" d="M22,24.3c1.2,0,2.4,0,3.6,0c0.3,0,0.5,0.2,0.6,0.4c0.1,0.4-0.2,0.8-0.6,0.8c-0.5,0-1.1,0-1.6,0
			c-1.9,0-3.7,0-5.6,0c-0.4,0-0.6-0.2-0.7-0.6c0-0.3,0.2-0.6,0.6-0.6c0.5,0,0.9,0,1.4,0C20.5,24.3,21.3,24.3,22,24.3z"/>
		<path class="st4" d="M13.8,21.2c-0.2,0-0.3-0.1-0.4-0.2c-0.3-0.3-0.6-0.6-0.9-0.9c-0.2-0.2-0.2-0.6,0-0.8c0.2-0.2,0.6-0.3,0.9,0
			c0.1,0.1,0.2,0.2,0.3,0.3s0.2,0.1,0.3,0c0.4-0.4,0.8-0.8,1.2-1.2c0.2-0.2,0.4-0.2,0.6-0.2c0.2,0.1,0.4,0.2,0.4,0.5
			c0,0.2,0,0.4-0.2,0.5c-0.6,0.6-1.2,1.2-1.8,1.8C14.1,21.2,14,21.2,13.8,21.2z"/>
	</g>
</g>
<g class="st0">
	<g class="st1">
		<path class="st2" d="M228.6,47.2c0,1.8-0.8,3.2-2.5,3.9c-0.8,0.4-1.7,0.7-2.5,1c-0.5,0.2-1,0.1-1.2-0.4s0.2-0.8,0.6-0.9
			c0.7-0.3,1.5-0.6,2.3-0.9c1.5-0.6,2.2-1.8,1.8-3.4c-0.7-2.7-1.5-5.3-2.3-7.9c-0.4-1.2-0.7-2.5-1.1-3.7c-0.3-1-0.9-1.7-1.8-2.2
			c-0.9-0.5-1.9-1.1-2.7-1.7c-0.6-0.4-0.8-0.2-0.9,0.4c0,0.1-0.1,0.2-0.1,0.3c-0.2,2.2-1.9,3.1-3.6,3.9c-0.5,0.2-1,0.3-1.3-0.3
			c-0.3-0.5,0.1-0.9,0.6-1.1c2-0.7,2.8-2.3,3.2-4.2c0.3-1.4,0.9-2.9,1.3-4.3c0.3-0.9,0.2-1.6-0.3-2.4c-1.6-2.4-3.2-4.8-4.8-7.2
			c-2-2.9-5.8-2.9-7.7,0s-3.6,5.8-5.4,8.8c-0.4,0.6-0.3,1.3-0.1,1.9c0.7,1.7,1.4,3.4,2.2,5c0.5,1,1.4,1.6,2.2,2.3
			c0.4,0.4,0.9,0.8,0.3,1.4c-0.5,0.5-1,0.1-1.3-0.3c-1.4-1.2-2.6-2.4-3.1-4.2c-0.2-0.6-0.5-0.7-1-0.3c-1.2,0.8-2.4,1.5-3.6,2.3
			c-0.7,0.4-1.1,1.1-1.3,1.9c-1.1,3.9-2.3,7.8-3.4,11.8c-0.4,1.4,0.4,2.9,1.9,3.4c0.7,0.3,1.5,0.5,2.2,0.8c0.4,0.2,0.7,0.5,0.5,1
			s-0.6,0.6-1,0.4c-1-0.4-2.1-0.7-3.1-1.2c-1.7-1-2.5-2.9-1.9-4.8c1.1-4,2.3-8,3.5-12c0.3-1.1,1-2,2-2.7c1.2-0.8,2.4-1.5,3.6-2.3
			c0.5-0.3,0.7-0.6,0.4-1.2c-0.9-1.8-0.7-3.4,0.4-5c1.7-2.5,3.2-5.2,4.8-7.8c2.3-3.6,7.4-3.9,10-0.4c1.9,2.6,3.6,5.4,5.4,8.1
			c0.6,0.9,0.5,1.9,0.2,2.8c-0.2,0.8-0.4,1.6-0.7,2.3c-0.2,0.6-0.1,0.9,0.5,1.2c1.1,0.6,2.1,1.3,3.2,1.9c1.1,0.7,1.9,1.6,2.2,2.8
			c1.2,3.9,2.3,7.8,3.4,11.7C228.5,46.3,228.6,46.8,228.6,47.2z"/>
		<path class="st2" d="M209.1,36.8c3.7,0,7.4,0,11.1,0c1.2,0,1.3,0.1,1.3,1.3c0,4.3,0,8.6,0,12.9c0,1-0.2,1.2-1.4,1.2
			c-6.9,0-13.8,0-20.7,0c-0.6,0-1.2,0-1.8,0c-0.7,0-1.1-0.3-1.1-1.1c0-4.5,0-8.9,0-13.4c0-0.9,0.6-1,1.3-1
			C201.6,36.8,205.4,36.8,209.1,36.8L209.1,36.8z M209,50.8c3.3,0,6.7,0,10,0c0.8,0,1.1-0.3,1.1-1.1c0-3.5,0-7,0-10.5
			c0-0.8-0.3-1-1-1c-6.7,0-13.4,0-20,0c-0.8,0-1.1,0.3-1.1,1.1c0,3.5,0,6.9,0,10.4c0,0.9,0.3,1.1,1.1,1.1
			C202.4,50.8,205.7,50.8,209,50.8z"/>
		<path class="st2" d="M209.1,52.8c3.6,0,7.2,0,10.8,0c0.3,0,0.5,0,0.8,0c0.4,0.1,0.9,0.2,0.9,0.7s-0.4,0.7-0.8,0.8
			c-0.4,0-0.7,0.1-1.1,0.1c-3.7-0.2-7.4,0.1-11.2-0.1c-3.5-0.1-7,0-10.5,0.1c-0.4,0-0.7,0-1-0.2s-0.5-0.4-0.4-0.7s0.3-0.5,0.6-0.6
			s0.7-0.1,1.1-0.1C201.8,52.8,205.5,52.8,209.1,52.8z"/>
		<path class="st2" d="M209.2,33.4c-2,0-3-0.6-3.7-2.4c-0.5-1.2-1-2.4-1.4-3.6c-0.2-0.5-0.2-0.9,0.3-1.1c0.6-0.2,0.8,0.2,1,0.6
			c0.5,1.2,1,2.5,1.5,3.7s1,1.4,2.5,1.4c1-0.1,1.5-0.6,1.9-1.5c0.4-1.2,1-2.3,1.5-3.5c0.2-0.4,0.5-0.9,1-0.6
			c0.6,0.2,0.5,0.7,0.3,1.2c-0.5,1.2-1,2.4-1.5,3.6C212.1,32.7,210.9,33.5,209.2,33.4z"/>
		<path class="st2" d="M209.2,21.5c0.6,0,1.1,0.2,1.6,0.5c1.6,1.1,3.2,2.1,4.9,3.2c0.4,0.3,0.8,0.7,0.4,1.2
			c-0.4,0.5-0.8,0.4-1.3,0.1c-1.5-1-2.9-1.9-4.4-2.9c-0.8-0.6-1.6-0.6-2.4,0c-1.4,1-2.9,1.9-4.3,2.8c-0.5,0.3-1,0.6-1.4,0
			s0.1-1,0.5-1.2c1.5-1,3.1-2,4.6-3C208,21.7,208.5,21.5,209.2,21.5z"/>
	</g>
</g>
</svg>
