<svg id="Group_24952" data-name="Group 24952" xmlns="http://www.w3.org/2000/svg" xmlns:xlink="http://www.w3.org/1999/xlink" width="269.043" height="238.677" viewBox="0 0 269.043 238.677">
  <defs>
    <clipPath id="clip-path">
      <rect id="Rectangle_9395" data-name="Rectangle 9395" width="269.043" height="238.677" fill="none"/>
    </clipPath>
  </defs>
  <g id="Group_24951" data-name="Group 24951" clip-path="url(#clip-path)">
    <path id="Path_31173" data-name="Path 31173" d="M137.082,238.557q-55.174,0-110.348.032c-4.377.007-8.58.038-12.876-1.529-6.566-2.4-9.535-7.755-12.124-13.36-3.674-7.95-.97-15.318,3.09-22.342q15.025-26,30.088-51.98c9.74-16.793,19.542-33.549,29.249-50.361C73.807,82.312,83.339,65.54,92.978,48.831c7.371-12.779,14.935-25.448,22.218-38.276,5.635-9.926,19.177-13.02,29.19-8.563,6.822,3.037,10.082,8.681,13.449,14.51,8.713,15.083,17.333,30.218,26.025,45.312q15.3,26.57,30.659,53.1,20.37,35.189,40.77,70.361c4.051,7.014,8.7,13.816,11.7,21.269,5.678,14.1-.789,26.512-15.136,31.58-2.576.91-5.681.412-8.542.414q-53.116.031-106.234.014m12.1-124.24c0-10.09.1-20.181-.033-30.268-.1-7.33-4.45-13.676-15.131-13.332-8.39.27-13.448,4.9-13.488,13.2-.066,13.577-.022,27.155-.021,40.732,0,6.352.461,12.749-.146,19.043-.423,4.393,1.48,7.818,3.659,10.654,4.036,5.251,10.347,4.955,16.891,2.332,7.07-2.835,8.111-8.184,8.226-14.335.175-9.339.046-18.683.043-28.025m-.118,79.072c-.186-8.359-5.725-14.568-15.672-14.167-7.192.29-13.748,7.288-13.471,14.859.3,8.056,8.043,14.061,17.448,13.525,5.673-.324,11.732-7.69,11.7-14.217" fill="red"/>
    <path id="Path_31174" data-name="Path 31174" d="M149.184,114.317c0,9.342.129,18.687-.046,28.026-.115,6.151-1.156,11.5-8.226,14.334-6.544,2.624-12.855,2.92-16.891-2.332-2.179-2.835-4.082-6.261-3.659-10.654.607-6.294.146-12.69.146-19.043,0-13.577-.045-27.155.021-40.732.04-8.294,5.1-12.928,13.488-13.2,10.681-.344,15.034,6,15.131,13.332.134,10.088.033,20.178.036,30.268" fill="#fcf4d9"/>
    <path id="Path_31175" data-name="Path 31175" d="M149.063,193.389c.037,6.527-6.022,13.893-11.7,14.217-9.4.536-17.152-5.469-17.448-13.525-.277-7.571,6.279-14.569,13.471-14.859,9.947-.4,15.486,5.808,15.672,14.167" fill="#fcf4d9"/>
  </g>
</svg>
