<svg xmlns="http://www.w3.org/2000/svg" width="19.37" height="16.711" viewBox="0 0 19.37 16.711">
  <g id="Component_118_1" data-name="Component 118 – 1" transform="translate(0.5 0.5)">
    <path id="Path_32364" data-name="Path 32364" d="M54.795,72.961c0,.157,0,.315,0,.472,0,.277-.106.388-.383.389q-1.3.005-2.59,0a.326.326,0,0,1-.362-.326.33.33,0,0,1,.372-.316c.719,0,1.437,0,2.156,0,.111,0,.15-.026.15-.145q-.006-2.526,0-5.052v-.136H51.925a1.1,1.1,0,0,1-.173-.007.32.32,0,0,1-.288-.339.316.316,0,0,1,.324-.307q1.331-.005,2.663,0a.324.324,0,0,1,.346.361c0,.085,0,.17,0,.3.068-.061.11-.094.147-.132a5.252,5.252,0,0,1,1.679-1.3,9.495,9.495,0,0,1,.977-.3c.235-.07.471-.135.7-.218a.2.2,0,0,0,.084-.158c.008-.3,0-.6,0-.9q0-1.245,0-2.49c0-.347.092-.442.432-.443l6.715,0c.14,0,.28.007.42,0a.494.494,0,0,1,.411.166q1.284,1.294,2.575,2.582c.229.229.458.457.691.68a.587.587,0,0,1,.2.459q-.006,5.725,0,11.451a.322.322,0,0,1-.333.369c-.125.009-.25,0-.376,0l-10.274,0c-.043,0-.087,0-.13,0a.32.32,0,0,1-.326-.345q0-1.556,0-3.112c0-.087-.007-.15-.114-.16a6.245,6.245,0,0,1-1.87-.573,5.984,5.984,0,0,0-1.395-.461c-.048-.008-.1-.014-.143-.018a.405.405,0,0,0-.078.013M59.055,65.5a.883.883,0,0,0,.127-.07c.35-.287.695-.58,1.049-.861a2.414,2.414,0,0,1,.523-.351,1.026,1.026,0,0,1,1.46.766,1.5,1.5,0,0,1-.475,1.445c-.308.3-.651.558-.985.826a3.067,3.067,0,0,0-.766.872,7.5,7.5,0,0,1-.756,1.053.689.689,0,0,0-.187.493c.011,1.1.005,2.21.005,3.314q0,1.925,0,3.85c0,.1.02.141.136.139.415-.009.829-.005,1.244-.006q4.3,0,8.594,0c.137,0,.155-.049.154-.168q0-5.319,0-10.638c0-.132-.04-.161-.164-.161-.96,0-1.919,0-2.879,0-.292,0-.395-.1-.4-.388q0-1.44,0-2.88v-.16H59.055Zm-.665,4.4c-.089.054-.145.092-.2.121a.335.335,0,0,1-.455-.114.319.319,0,0,1,.13-.447A4.365,4.365,0,0,0,59.485,67.7a1.929,1.929,0,0,1,.373-.511c.359-.328.748-.621,1.115-.941a3.59,3.59,0,0,0,.475-.5.741.741,0,0,0,.123-.646.366.366,0,0,0-.536-.285,1.317,1.317,0,0,0-.388.266,7.076,7.076,0,0,1-1.26.99,4.973,4.973,0,0,1-1.541.673,6.359,6.359,0,0,0-.714.172,3.909,3.909,0,0,0-1.422.969q-.388.377-.8.73a.255.255,0,0,0-.116.211q0,1.672,0,3.344c0,.083.033.112.107.12a5.437,5.437,0,0,1,1.549.444,7.269,7.269,0,0,0,1.8.61c.132.018.146-.02.145-.13q0-1.571,0-3.141V69.9m8.025-6.834-.035.01c0,.055.014.109.013.164,0,.665,0,1.33-.008,2,0,.1.022.122.12.121.641-.008,1.282-.009,1.923-.011.081,0,.163.007.273.012l-2.287-2.291" transform="translate(-51.46 -61.913)" fill="none" stroke="#99999985" stroke-width="1"/>
    <path id="Path_32403" data-name="Path 32403" d="M142.554,113.883h-2.247c-.051,0-.1,0-.153,0a.406.406,0,0,1-.4-.386.4.4,0,0,1,.412-.388c.687,0,1.373,0,2.06,0h2.689c.285,0,.461.148.46.386s-.175.392-.457.392q-1.183,0-2.366,0Z" transform="translate(-130.133 -107.204)" fill="none" stroke="#99999985" stroke-width="1"/>
    <path id="Path_32404" data-name="Path 32404" d="M142.579,151.749c-.789,0-1.578,0-2.367,0a.387.387,0,1,1-.022-.772l1.124,0q1.805,0,3.61,0a.428.428,0,0,1,.438.23.385.385,0,0,1-.382.546c-.454.007-.908,0-1.362,0h-1.039Z" transform="translate(-130.154 -140.706)" fill="none" stroke="#99999985" stroke-width="1"/>
    <path id="Path_32405" data-name="Path 32405" d="M142.583,132.042c.777,0,1.555,0,2.332,0a.656.656,0,0,1,.263.047.381.381,0,0,1,.206.412.367.367,0,0,1-.324.3,2.9,2.9,0,0,1-.357.011l-4.46,0c-.344,0-.556-.258-.437-.533a.4.4,0,0,1,.411-.243c.789,0,1.577,0,2.366,0Z" transform="translate(-130.147 -123.956)" fill="none" stroke="#99999985" stroke-width="1"/>
  </g>
</svg>
