<svg xmlns="http://www.w3.org/2000/svg" width="17.71" height="12.397" viewBox="0 0 17.71 12.397">
  <path id="Icon_awesome-users" data-name="Icon awesome-users" d="M2.656,7.563A1.771,1.771,0,1,0,.885,5.792,1.773,1.773,0,0,0,2.656,7.563Zm12.4,0a1.771,1.771,0,1,0-1.771-1.771A1.773,1.773,0,0,0,15.053,7.563Zm.886.885H14.168a1.766,1.766,0,0,0-1.248.515A4.048,4.048,0,0,1,15,11.99h1.826a.885.885,0,0,0,.885-.885v-.885A1.773,1.773,0,0,0,15.939,8.448Zm-7.084,0a3.1,3.1,0,1,0-3.1-3.1A3.1,3.1,0,0,0,8.855,8.448Zm2.125.886h-.23a4.279,4.279,0,0,1-3.791,0H6.73a3.189,3.189,0,0,0-3.188,3.188v.8A1.329,1.329,0,0,0,4.87,14.647h7.97a1.329,1.329,0,0,0,1.328-1.328v-.8A3.189,3.189,0,0,0,10.98,9.334ZM4.79,8.963a1.766,1.766,0,0,0-1.248-.515H1.771A1.773,1.773,0,0,0,0,10.219V11.1a.885.885,0,0,0,.885.885H2.709A4.058,4.058,0,0,1,4.79,8.963Z" transform="translate(0 -2.25)" fill="#6eb55e"/>
</svg>
