<?xml version="1.0" encoding="utf-8"?>
<!-- Generator: Adobe Illustrator 25.2.2, SVG Export Plug-In . SVG Version: 6.00 Build 0)  -->
<svg version="1.1" id="Capa_1" xmlns="http://www.w3.org/2000/svg" xmlns:xlink="http://www.w3.org/1999/xlink" x="0px" y="0px"
	 viewBox="0 0 473.4 473.9" style="enable-background:new 0 0 473.4 473.9;" xml:space="preserve">
<g>
	<g>
		<g>
			<path d="M354.3,459.7c-9.3-50.5-3-102.6,18.2-149.3l-18-8c-21.4,47.5-28.8,100.2-21.1,151.8H142l25.2-75.7
				c0.6-1.8,0.7-3.7,0.2-5.5c-1.3-5.3-6.7-8.5-11.9-7.2c-0.4,0.1-37.1,9-63.5,0.2c-19.3-6.4-17.6-55.1-13.8-77.7
				c0.1-0.5,0.1-1.1,0.1-1.7c0-5.4-4.4-9.9-9.9-9.8H32.8c-7.1,0-12.8-5.7-12.8-12.8c0-2.6,0.8-5.1,2.2-7.2l49.6-73
				c1.5-2.2,2-4.9,1.5-7.5c-5.8-35.5,3.2-71.9,24.9-100.7c29.7-36.5,82.7-55,157.6-55V1c-81,0-139.2,20.9-172.8,62.2
				C58.1,95.2,47.4,136,53.2,176L5.9,245.8c-3.6,5.4-5.6,11.7-5.6,18.1c0,18,14.5,32.5,32.5,32.6h24.5c-2.6,24.4-4.3,77.2,28.6,88.2
				c18.7,5.2,38.3,6.3,57.5,3.3L119,460.9c-0.3,1-0.5,2.1-0.5,3.1c0,5.4,4.4,9.9,9.9,9.8H345c0.6,0,1.2-0.1,1.8-0.2
				c5.3-1,8.9-6.2,7.9-11.5L354.3,459.7z"/>
		</g>
	</g>
	<g>
		<g>
			<rect x="226.8" y="326.1" width="19.7" height="19.7"/>
		</g>
	</g>
	<g>
		<g>
			<rect x="246.5" y="365.5" width="19.7" height="19.7"/>
		</g>
	</g>
	<g>
		<g>
			<rect x="266.2" y="404.9" width="19.7" height="19.7"/>
		</g>
	</g>
	<g>
		<g>
			<path d="M305.6,79.8c-49,0-88.7,39.7-88.7,88.7s39.7,88.7,88.7,88.7c48.9-0.1,88.6-39.7,88.7-88.7
				C394.3,119.5,354.6,79.8,305.6,79.8z M305.6,237.4c-38.1,0-69-30.9-69-69c0-38.1,30.9-69,69-69c38.1,0,68.9,30.9,69,69
				C374.6,206.5,343.7,237.4,305.6,237.4z"/>
		</g>
	</g>
	<g>
		<g>
			<path d="M266.2,168.4h-19.7c0,32.6,26.5,59.1,59.1,59.1v-19.7C283.9,207.8,266.2,190.2,266.2,168.4z"/>
		</g>
	</g>
	<g>
		<g>
			<path d="M305.6,109.3V129c21.8,0,39.4,17.6,39.4,39.4h19.7C364.7,135.8,338.3,109.4,305.6,109.3z"/>
		</g>
	</g>
	<g>
		<g>
			<path d="M464.9,139l-36.3-6.1c-2.7-9.2-6.3-18-11-26.4l21.4-30c2.8-3.9,2.4-9.3-1.1-12.7l-27.9-27.9c-3.4-3.4-8.8-3.9-12.7-1.1
				l-30,21.4c-8.3-4.6-17.2-8.3-26.3-11l-6-36.3c-0.8-4.7-4.9-8.2-9.7-8.2h-39.4c-4.8,0-8.9,3.5-9.7,8.2l-6,36.3
				c-9.2,2.7-18,6.3-26.4,11l-30-21.4c-3.9-2.8-9.3-2.4-12.7,1.1l-27.9,27.9c-3.4,3.4-3.9,8.8-1.1,12.7l21.4,30
				c-4.6,8.3-8.3,17.2-11,26.3l-36.3,6.1c-4.7,0.8-8.2,4.9-8.2,9.7v39.4c0,4.8,3.5,8.9,8.2,9.7l36.3,6.1c2.7,9.2,6.3,18,11,26.4
				l-21.4,30c-2.8,3.9-2.4,9.3,1.1,12.7l27.9,27.9c3.4,3.4,8.8,3.9,12.7,1.1l30-21.4c8.3,4.6,17.2,8.3,26.3,11l6,36.3
				c0.8,4.7,4.9,8.2,9.7,8.2h39.4c4.8,0,8.9-3.5,9.7-8.2l6.1-36.3c9.2-2.7,18-6.3,26.4-11l30,21.4c3.9,2.8,9.3,2.4,12.7-1.1
				l27.9-27.9c3.4-3.4,3.9-8.8,1.1-12.7l-21.4-30c4.6-8.3,8.3-17.2,11-26.3l36.3-6.1c4.7-0.8,8.2-4.9,8.2-9.7v-39.4
				C473.1,143.9,469.6,139.8,464.9,139z M453.4,179.8l-34.4,5.8c-3.9,0.7-7.1,3.6-8,7.5c-2.7,11.5-7.3,22.5-13.5,32.5
				c-2.1,3.4-2,7.7,0.3,10.9l20.3,28.4L402.1,281l-28.4-20.3c-3.2-2.3-7.6-2.4-10.9-0.3c-10,6.3-21,10.8-32.5,13.5
				c-3.9,0.9-6.8,4-7.5,8l-5.7,34.4h-22.7l-5.8-34.4c-0.7-3.9-3.6-7.1-7.5-8c-11.5-2.7-22.5-7.3-32.5-13.5c-3.4-2.1-7.7-2-10.9,0.3
				l-28.4,20.3l-16.1-16.1l20.3-28.4c2.3-3.2,2.4-7.6,0.3-10.9c-6.3-10-10.8-21-13.5-32.5c-0.9-3.9-4-6.8-8-7.5l-34.4-5.7v-22.7
				l34.4-5.8c3.9-0.7,7.1-3.6,8-7.5c2.7-11.5,7.3-22.5,13.5-32.5c2.1-3.4,2-7.7-0.3-10.9L193.1,72l16.1-16.1l28.4,20.3
				c3.2,2.3,7.6,2.4,10.9,0.3c10-6.3,21-10.8,32.5-13.5c3.9-0.9,6.8-4,7.5-8l5.7-34.4H317l5.8,34.4c0.7,3.9,3.6,7.1,7.5,8
				c11.5,2.7,22.5,7.3,32.5,13.5c3.4,2.1,7.7,2,10.9-0.3L402.1,56L418.2,72l-20.3,28.4c-2.3,3.2-2.4,7.6-0.3,10.9
				c6.3,10,10.8,21,13.5,32.5c0.9,3.9,4,6.8,8,7.5l34.4,5.7L453.4,179.8L453.4,179.8z"/>
		</g>
	</g>
</g>
</svg>
