<svg xmlns="http://www.w3.org/2000/svg" width="11.719" height="12.698" viewBox="0 0 11.719 12.698">
  <path id="Path_13693" data-name="Path 13693" d="M475.951,1217.392H475.3v-1.27H474v1.27h-5.209v-1.27h-1.3v1.27h-.651a1.29,1.29,0,0,0-1.3,1.27v8.888a1.29,1.29,0,0,0,1.3,1.27h9.115a1.29,1.29,0,0,0,1.3-1.27v-8.888A1.29,1.29,0,0,0,475.951,1217.392Zm0,10.158h-9.115V1221.2h9.115Zm-9.115-7.618v-1.27h9.115v1.27Zm3.622,6.641,3.861-3.765-.693-.673-3.17,3.092-1.374-1.34-.692.673Z" transform="translate(-465.534 -1216.122)" fill="gray"/>
</svg>
