<?xml version="1.0" encoding="utf-8"?>
<svg version="1.1" xmlns:xlink="http://www.w3.org/1999/xlink" width="26px" height="29px" xmlns="http://www.w3.org/2000/svg">
  <g transform="matrix(1 0 0 1 -588 -59 )">
    <path d="M 15.0143229166667 7.419921875  C 15.1158854166667 7.533203125  15.1666666666667 7.67795138888888  15.1666666666667 7.85416666666667  L 15.1666666666667 16.3125  C 15.1666666666667 16.4887152777778  15.1158854166667 16.6334635416667  15.0143229166667 16.7467447916667  C 14.9127604166667 16.8600260416667  14.7829861111111 16.9166666666667  14.625 16.9166666666667  L 9.20833333333333 16.9166666666667  C 9.05034722222222 16.9166666666667  8.92057291666667 16.8600260416667  8.81901041666667 16.7467447916667  C 8.71744791666667 16.6334635416667  8.66666666666667 16.4887152777778  8.66666666666667 16.3125  L 8.66666666666667 15.1041666666667  C 8.66666666666667 14.9279513888889  8.71744791666667 14.783203125  8.81901041666667 14.669921875  C 8.92057291666667 14.556640625  9.05034722222222 14.5  9.20833333333333 14.5  L 13 14.5  L 13 7.85416666666667  C 13 7.67795138888888  13.05078125 7.533203125  13.15234375 7.419921875  C 13.25390625 7.306640625  13.3836805555556 7.25  13.5416666666667 7.25  L 14.625 7.25  C 14.7829861111111 7.25  14.9127604166667 7.306640625  15.0143229166667 7.419921875  Z M 20.97265625 19.654296875  C 21.7964409722222 18.0809461805556  22.2083333333333 16.3628472222222  22.2083333333333 14.5  C 22.2083333333333 12.6371527777778  21.7964409722222 10.9190538194444  20.97265625 9.345703125  C 20.1488715277778 7.77235243055555  19.0316840277778 6.52625868055555  17.62109375 5.607421875  C 16.2105034722222 4.68858506944444  14.6701388888889 4.22916666666667  13 4.22916666666667  C 11.3298611111111 4.22916666666667  9.78949652777778 4.68858506944444  8.37890625 5.607421875  C 6.96831597222222 6.52625868055555  5.85112847222222 7.77235243055555  5.02734375 9.345703125  C 4.20355902777778 10.9190538194444  3.79166666666667 12.6371527777778  3.79166666666667 14.5  C 3.79166666666667 16.3628472222222  4.20355902777778 18.0809461805556  5.02734375 19.654296875  C 5.85112847222222 21.2276475694444  6.96831597222222 22.4737413194444  8.37890625 23.392578125  C 9.78949652777778 24.3114149305556  11.3298611111111 24.7708333333333  13 24.7708333333333  C 14.6701388888889 24.7708333333333  16.2105034722222 24.3114149305556  17.62109375 23.392578125  C 19.0316840277778 22.4737413194444  20.1488715277778 21.2276475694444  20.97265625 19.654296875  Z M 24.2565104166667 7.2216796875  C 25.4188368055556 9.44325086805555  26 11.8693576388889  26 14.5  C 26 17.1306423611111  25.4188368055556 19.5567491319444  24.2565104166667 21.7783203125  C 23.0941840277778 23.9998914930556  21.5171440972222 25.7588975694444  19.525390625 27.0553385416667  C 17.5336371527778 28.3517795138889  15.3585069444444 29  13 29  C 10.6414930555556 29  8.46636284722222 28.3517795138889  6.474609375 27.0553385416667  C 4.48285590277778 25.7588975694444  2.90581597222222 23.9998914930556  1.74348958333333 21.7783203125  C 0.581163194444444 19.5567491319444  0 17.1306423611111  0 14.5  C 0 11.8693576388889  0.581163194444444 9.44325086805555  1.74348958333333 7.2216796875  C 2.90581597222222 5.00010850694444  4.48285590277778 3.24110243055555  6.474609375 1.94466145833333  C 8.46636284722222 0.648220486111109  10.6414930555556 0  13 0  C 15.3585069444444 0  17.5336371527778 0.648220486111109  19.525390625 1.94466145833333  C 21.5171440972222 3.24110243055555  23.0941840277778 5.00010850694444  24.2565104166667 7.2216796875  Z " fill-rule="nonzero" fill="#797979" stroke="none" transform="matrix(1 0 0 1 588 59 )" />
  </g>
</svg>