<svg xmlns="http://www.w3.org/2000/svg" width="14.117" height="14.226" viewBox="0 0 14.117 14.226">
  <g id="Group_462" data-name="Group 462" opacity="0.3">
    <g id="Group_461" data-name="Group 461">
      <g id="Group_460" data-name="Group 460">
        <path id="Path_186" data-name="Path 186" d="M1277.762,1207.875a7.432,7.432,0,0,0-1.124-1.441,7.518,7.518,0,0,0-1.456-1.137l.889-.894a3.136,3.136,0,0,1,1.923.649,3.2,3.2,0,0,1,.643,1.94Zm-7.467,7.521h-2.566v-2.584l.306-.312a5.4,5.4,0,0,1,2.569,2.587Zm6.727-6.776-5.678,5.719a7.42,7.42,0,0,0-2.578-2.574l5.689-5.731a5.413,5.413,0,0,1,2.567,2.586Zm-10.576-2.276v10.344h10.265v-4.524l1.926-1.966v7.139a1.287,1.287,0,0,1-1.283,1.292H1265.8a1.289,1.289,0,0,1-1.284-1.292V1205.7a1.292,1.292,0,0,1,1.284-1.3h7.065l-1.927,1.941Z" transform="translate(-1264.52 -1204.403)" fill="#999"/>
      </g>
    </g>
  </g>
</svg>
