<?xml version="1.0" encoding="utf-8"?>
<!-- Generator: Adobe Illustrator 25.3.1, SVG Export Plug-In . SVG Version: 6.00 Build 0)  -->
<svg version="1.1" id="Layer_1" xmlns="http://www.w3.org/2000/svg" xmlns:xlink="http://www.w3.org/1999/xlink" x="0px" y="0px"
	 viewBox="0 0 318.5 48.2" style="enable-background:new 0 0 318.5 48.2;" xml:space="preserve">
<style type="text/css">
	.st0{fill:#FFCC00;}
</style>
<g>
	<path d="M11.7,5.6h7.7l-6.3,32h14.4l-1,5.5H4.3L11.7,5.6z"/>
	<path d="M50.5,24.2l5.9,7.9c0.8-1,1.6-2.3,2.3-4.1c0.7-1.8,1.1-3.5,1.3-5.2h6.5c-1,5.5-3.2,10-6.6,13.7l5.4,6.8h-8.1L55.2,40
		c-2.9,2.5-6.3,3.7-10.4,3.7c-3.7,0-6.6-0.9-9-2.7c-2.3-1.8-3.5-4.3-3.5-7.3c0-2.8,0.8-5.2,2.5-7.2s4.1-3.4,7.3-4.4
		c-2-2.7-3-5.2-3-7.4c0-3,1.1-5.4,3.3-7.1C44.6,5.8,47.2,5,50.4,5c3,0,5.4,0.7,7.3,2.2c1.9,1.5,2.8,3.5,2.8,6.1
		C60.6,18.3,57.2,22,50.5,24.2z M52,36l-7.1-10.2c-3.7,1.2-5.5,3.4-5.5,6.8c0,1.8,0.6,3.2,1.7,4.3c1.1,1.1,2.7,1.6,4.6,1.6
		C48.1,38.5,50.2,37.7,52,36z M48,20.4l0.7-0.2c3.8-1.3,5.7-3.5,5.7-6.6c0-1.2-0.4-2.1-1.1-2.9c-0.7-0.8-1.7-1.1-3-1.1
		c-1.5,0-2.6,0.5-3.4,1.5c-0.8,1-1.2,2.2-1.2,3.6C45.7,16.3,46.5,18.2,48,20.4z"/>
	<path d="M74.1,5.6h26.4l-1.1,5.6l-9-0.2l-6.3,32.1h-7.7l6.3-32.1L73,11.3L74.1,5.6z"/>
	<path class="st0" d="M118.2,5.6h21.5l-1.1,5.4h-14l-2.1,10.3h13.3l-1.1,5.3h-13.2l-2.2,11.1h14.8l-1.1,5.4h-22.3L118.2,5.6z"/>
	<path class="st0" d="M150.7,43.9c-3,0-5.4-1-7.1-3c-1.7-2-2.6-4.7-2.6-8.1c0-5,1.3-9.3,3.9-12.7c2.6-3.5,5.9-5.2,9.8-5.2
		c3.7,0,6.1,1.6,7.1,4.8h0.1c0.2-1.7,1.2-7.4,3.2-17.1h7.4l-6.5,32.8c-0.7,3.5-1.1,6.1-1.2,7.8h-6.6c0-1,0.3-2.3,0.7-4.1h-0.1
		C156.7,42.3,154,43.9,150.7,43.9z M153,38.8c2.2,0,4-1.3,5.5-3.9c1.5-2.6,2.2-5.6,2.2-8.9c0-4.1-1.6-6.1-4.7-6.1
		c-2.2,0-4.1,1.3-5.5,3.8c-1.5,2.6-2.2,5.5-2.2,8.7C148.2,36.7,149.8,38.8,153,38.8z"/>
	<path class="st0" d="M190.9,38.4h-0.1c-2.1,3.6-5.2,5.4-9.2,5.4c-2.6,0-4.6-0.7-6-2c-1.4-1.3-2.1-3.3-2.1-5.8
		c0-1.6,0.2-3.4,0.6-5.4l3-15.1h7.3l-3,14.7c-0.4,1.9-0.6,3.3-0.6,4.4c0,2.7,1.1,4,3.4,4c2.4,0,4.4-1.6,6-4.7
		c0.7-1.5,1.5-4.4,2.4-8.7l1.9-9.6h7.5l-4.3,21.6c-0.4,2.1-0.7,4.1-1,6.1H190C190,42.1,190.3,40.5,190.9,38.4z"/>
	<path class="st0" d="M208.8,5.6h26.4l-1.1,5.6l-9-0.2l-6.3,32.1h-7.7l6.3-32.1l-9.8,0.2L208.8,5.6z"/>
	<path class="st0" d="M259.7,31.2h-18.4c0,0.2-0.1,0.5-0.1,0.9c0,2.2,0.7,3.9,2.2,5c1.5,1.1,3.5,1.7,6.2,1.7c2.1,0,4.4-0.4,6.7-1.1
		l-1.1,5.3c-2,0.6-4.3,0.9-6.8,0.9c-4.6,0-8.1-1.1-10.6-3.2c-2.5-2.1-3.7-5.2-3.7-9.2c0-4.8,1.4-8.8,4.3-11.9
		c2.8-3.2,6.5-4.7,11.1-4.7c7.3,0,11,3.6,11,10.8C260.6,27.1,260.3,29,259.7,31.2z M241.9,26.8h12c0.1-0.7,0.2-1.3,0.2-2
		c0-3.6-1.5-5.4-4.5-5.4c-2,0-3.7,0.7-5,2C243.3,22.8,242.4,24.6,241.9,26.8z"/>
	<path class="st0" d="M286.2,16.1l-1.6,5c-1.3-0.6-2.8-0.9-4.4-0.9c-2.7,0-4.8,1.1-6.4,3.3c-1.6,2.2-2.4,4.8-2.4,7.9
		c0,2.1,0.5,3.8,1.6,5.1c1.1,1.3,2.7,2,5,2c1.4,0,2.7-0.2,4.1-0.7l-0.4,5.2c-1.6,0.4-3.4,0.6-5.2,0.6c-3.9,0-7-1-9.2-3.1
		c-2.2-2.1-3.3-5.1-3.3-8.9c0-4.8,1.4-8.7,4.3-11.9c2.9-3.1,6.6-4.7,11.1-4.7C282,15,284.2,15.4,286.2,16.1z"/>
	<path class="st0" d="M304.3,43.1l3-14.7c0.4-1.9,0.6-3.3,0.6-4.4c0-2.7-1.1-4-3.4-4s-4,1.1-5.2,3.2c-1.2,2.1-2.3,5.6-3.2,10.2
		l-1.9,9.6h-7.5l8-40.6h7.4c-1.9,9.2-3.2,14.9-3.9,17.2h0.1c2.3-3.3,5.2-4.9,8.9-4.9c2.5,0,4.4,0.7,5.9,2.1c1.4,1.4,2.1,3.3,2.1,5.8
		c0,1.4-0.3,3.4-0.8,6.2l-2.9,14.2H304.3z"/>
</g>
</svg>
