<?xml version="1.0" encoding="utf-8"?>
<!-- Generator: Adobe Illustrator 25.3.1, SVG Export Plug-In . SVG Version: 6.00 Build 0)  -->
<svg version="1.1" id="Layer_1" xmlns="http://www.w3.org/2000/svg" xmlns:xlink="http://www.w3.org/1999/xlink" x="0px" y="0px"
	 viewBox="0 0 393 392.2" style="enable-background:new 0 0 393 392.2;" xml:space="preserve">
<g>
	<path d="M296.5,230.5c10.8,0.1,20.9,3,30.1,8.7c6.5,4.1,8.5,10.6,5,16.4c-3.4,5.7-10.3,7-16.8,3c-20.8-12.6-46.6-1.5-51.6,22.2
		c-5.1,23.9,17.9,46,41.2,39.7c4.6-1.3,8.4-3.7,11.7-7.3c5-5.4,11.9-6,16.7-1.6c4.8,4.4,4.8,11.5,0,16.9
		c-14.3,16.1-39,20.4-60.1,10.5c-22.7-10.7-35.9-34.8-32.5-59.2c3.6-25.2,22.8-44.7,48-48.7C290.9,230.7,293.7,230.7,296.5,230.5z"
		/>
	<path d="M236.1,145.9c-11.2-29.8-22.4-59.6-33.7-89.4c-2.1-5.7-6.5-8.6-12.5-8.7c-5.6-0.1-10.4,3.1-12.5,8.6
		c-11.4,29.7-22.7,59.5-34,89.3c-2.4,6.3,0.6,12.7,6.5,15c5.9,2.3,12.1-0.6,14.7-6.9c1.6-4,3.1-8,4.5-12c0.7-1.9,1.5-2.7,3.7-2.7
		c11.2,0.1,22.4,0.1,33.7,0c2.1,0,3.1,0.6,3.8,2.6c1.5,4.4,3.1,8.8,4.9,13.1c2.3,5.2,7.6,7.6,13.1,6.3c4.9-1.2,8.6-6,8.5-11.8
		C236.7,148.6,236.6,147.2,236.1,145.9z M178.9,116.3c3.6-9.4,7.1-18.7,10.9-28.7c3.8,10,7.3,19.3,10.8,28.7
		C193.4,116.3,186.4,116.3,178.9,116.3z"/>
	<path d="M133.9,282.7c-1.2-1.2-2.6-1.8-1.4-4.2c11.6-23.5-3.5-47.7-29.6-47.8c-7.7,0-15.4,0-23.1,0c-8.9,0-13.1,4.3-13.1,13.3
		c0,14.5,0,29.1,0,43.6c0,14.7,0,29.3,0,44c0,8.2,4.4,12.7,12.5,12.7c10.1,0,20.2-0.1,30.3-0.1c4.1,0,8-0.7,11.8-2.1
		C146,332.8,152.7,301.3,133.9,282.7z M90,254c1.7-2,5.9-0.5,9-0.6c2-0.1,4-0.1,6,0.1c5.3,0.4,8.8,4.3,8.8,9.4
		c0,5.1-3.7,9.4-8.7,9.7c-4.6,0.3-9.3,0-13.9,0.1c-1.6,0-1.8-0.7-1.8-2c0.1-2.5,0-5,0-7.6c0,0-0.1,0-0.1,0
		C89.4,260,88.4,255.9,90,254z M109.7,321.3c-6,0.2-12.1,0-18.1,0.2c-1.9,0.1-2.3-0.6-2.3-2.3c0.1-3.5,0-7.1,0-10.6
		c0-3.7,0.1-7.3,0-11c-0.1-1.8,0.5-2.4,2.3-2.3c6,0.1,12.1-0.1,18.1,0.1c6.9,0.2,12.2,5.9,12.3,12.8
		C122.1,315.3,116.8,321.1,109.7,321.3z"/>
	<path d="M386,205c-8.7-13.8-21-21.2-37.3-21.3c-17.9-0.2-35.8,0-53.7,0c-5.3,0-5.3,0-3.7-4.9c1.3-3.9,2.1-7.8,2.1-11.9
		c0-41.4,0.1-82.9-0.1-124.3c0-8.5-2.7-16.4-7.8-23.4c-7.4-10.1-16.8-16.5-29.6-17.2c-44.7,0-89.3,0-134,0
		c-4.6,0.8-9.2,1.5-13.3,3.9c-14.5,8.4-22.5,21-22.6,37.8C85.9,84.4,86,125.2,86,166c0,3.4,0.4,6.8,1.4,10.1
		c0.8,2.7,1.1,5.7,3.2,7.5c-16.1,0-32.6-0.7-49,0.2c-21.6,1.2-39,19.7-38.9,40c0.2,42.4,0.1,84.9,0,127.3c0,7.5,2,14.5,6.2,20.7
		c7.4,10.7,17.1,17.7,30.5,18.4c44.2,0,88.3,0,132.5,0c8.9-0.5,16.5-3.9,23-10c1.6-1.5,2.8-1,4.2,0.2c6.1,5.4,13,8.9,21.2,9.7
		c44.7,0,89.3,0,134,0c18.5-0.5,35-18.2,36.3-34.9c0-44.7,0-89.5,0-134.2C390.1,215.4,389.1,209.9,386,205z M165.4,367.5
		c-39.9,0-79.7,0-119.6,0c-11.9,0-20-8-20-19.9c0-20.1,0-40.2,0-60.3c0-19.8,0-39.7,0-59.5c0-12.4,7.9-20.3,20.4-20.3
		c39.7,0,79.4,0,119.2,0c12.2,0,20.2,8,20.2,20.1c0,39.9,0,79.9,0,119.8C185.5,359.5,177.5,367.4,165.4,367.5z M189.3,184.7
		c-19.7,0-39.3,0-59,0c-12.6,0-20.5-7.9-20.5-20.6c0-39.7,0-79.3,0-119c0-12.5,7.9-20.4,20.2-20.4c39.7,0,79.4,0,119.2,0
		c12.4,0,20.3,7.9,20.3,20.4c0,39.8,0,79.6,0,119.4c0,12.2-8,20.2-20.1,20.2C229.4,184.7,209.4,184.7,189.3,184.7z M368,287.9
		c0,19.7,0,39.4,0,59.1c0,12.5-7.9,20.4-20.2,20.4c-39.7,0-79.4,0-119.2,0c-12.4,0-20.3-7.9-20.3-20.4c0-39.8,0-79.6,0-119.4
		c0-12.2,7.9-20.2,20-20.2c39.9,0,79.7,0,119.6,0c12.1,0,20.1,8,20.1,20.2C368,247.7,368,267.8,368,287.9z"/>
</g>
</svg>
