<svg xmlns="http://www.w3.org/2000/svg" width="21.184" height="21.184" viewBox="0 0 21.184 21.184">
  <path id="Icon_awesome-check-circle" data-name="Icon awesome-check-circle" d="M21.746,11.154A10.592,10.592,0,1,1,11.154.563,10.592,10.592,0,0,1,21.746,11.154ZM9.929,16.763,17.788,8.9a.683.683,0,0,0,0-.966l-.966-.966a.683.683,0,0,0-.966,0L9.446,13.38,6.454,10.388a.683.683,0,0,0-.966,0l-.966.966a.683.683,0,0,0,0,.966l4.442,4.442a.683.683,0,0,0,.966,0Z" transform="translate(-0.563 -0.563)" fill="#408f2c"/>
</svg>
