<svg xmlns="http://www.w3.org/2000/svg" width="73.231" height="73.232" viewBox="0 0 73.231 73.232">
  <path id="Path_29922" data-name="Path 29922" d="M44.868,51.691H42.692V34.324A2.888,2.888,0,0,0,39.8,31.435H31.364a2.889,2.889,0,0,0,0,5.779h5.55V51.691h-5.55a2.889,2.889,0,0,0,0,5.779h13.5a2.889,2.889,0,0,0,0-5.779ZM38.116,25.152a4.334,4.334,0,1,0-4.334-4.334A4.334,4.334,0,0,0,38.116,25.152ZM38.116,2A36.116,36.116,0,1,0,74.231,38.116,36.157,36.157,0,0,0,38.116,2ZM59.294,59.8a30.313,30.313,0,1,1,9.159-21.687A30.312,30.312,0,0,1,59.294,59.8Z" transform="translate(-1.5 -1.5)" fill="#1b4e9b" stroke="#fff" stroke-width="1"/>
</svg>
