<svg xmlns="http://www.w3.org/2000/svg" width="17.925" height="12.1" viewBox="0 0 17.925 12.1">
  <path id="Icon_zocial-email" data-name="Icon zocial-email" d="M.072,15.1V5.14q0-.017.052-.328l5.86,5.013L.141,15.442A1.465,1.465,0,0,1,.072,15.1ZM.85,4.12a.745.745,0,0,1,.294-.052H16.926a.979.979,0,0,1,.311.052L11.36,9.15l-.778.622L9.043,11.034,7.5,9.772,6.727,9.15Zm.017,12,5.894-5.652,2.282,1.85,2.282-1.85,5.894,5.652a.83.83,0,0,1-.294.052H1.144a.783.783,0,0,1-.277-.052ZM12.1,9.824l5.843-5.013A1.032,1.032,0,0,1,18,5.14V15.1a1.325,1.325,0,0,1-.052.346Z" transform="translate(-0.072 -4.068)" fill="#315384"/>
</svg>
