<svg xmlns="http://www.w3.org/2000/svg" width="207.582" height="36.863" viewBox="0 0 207.582 36.863">
  <g id="LnT_Full_Logo_blue" data-name="LnT Full Logo_blue" transform="translate(-334.998 -174)">
    <path id="Path_3362" data-name="Path 3362" d="M353.44,176.334a16.082,16.082,0,1,1,.233,32.162l7.418-13.41h5.058l2.749-4.954H356.189l-2.749,4.954h4.747l-7.314,13.2a16.1,16.1,0,0,1-2.075-31.306l-7.262,13.124h0l-2.749,4.954h12.709l2.749-4.954h-9.8l7.625-13.747C352.506,176.36,352.973,176.334,353.44,176.334Zm0-2.334a18.43,18.43,0,1,1-13.043,5.4A18.43,18.43,0,0,1,353.44,174Z" fill-rule="evenodd"/>
    <path id="Path_3363" data-name="Path 3363" d="M507.6,237.483h8.339l.5-2.217H511.1l2.155-9.682h-2.967Zm17.865-3.092.281,3.092h3.123l-1.624-11.9h-3.81l-6.777,11.9h3.154l1.655-3.092h4Zm-3.123-1.936,1.374-2.561c.375-.687.781-1.593,1.124-2.342h.031c.062.718.156,1.687.219,2.342l.281,2.561Zm7.683,5.028h2.967l1.031-4.685h.906c1.187,0,1.749.437,1.874,1.874a18.2,18.2,0,0,0,.406,2.811h3.061a16.856,16.856,0,0,1-.531-3.373c-.156-1.062-.5-1.874-1.312-2.155v-.062c1.78-.5,3.154-1.593,3.154-3.342a2.525,2.525,0,0,0-1.562-2.342,8.394,8.394,0,0,0-3.654-.687,20.656,20.656,0,0,0-3.717.312l-2.624,11.65Zm5.153-9.869a4.939,4.939,0,0,1,1.156-.094c1.187,0,2.124.437,2.124,1.374,0,1.156-1.187,2-2.78,2h-1.249Zm6.122,9.214a7.99,7.99,0,0,0,4,.875c3.092,0,5.653-1.374,5.653-4.029,0-1.405-1.062-2.374-2.78-3.154-1.187-.562-2.03-1-2.03-1.687,0-.656.718-1.249,2.124-1.249a5.872,5.872,0,0,1,2.592.531l.937-2.093a6.994,6.994,0,0,0-3.279-.625c-3.029,0-5.5,1.468-5.5,3.873,0,1.562,1.405,2.467,2.9,3.155,1.281.562,1.874,1,1.874,1.687,0,.937-1.062,1.405-2.218,1.405a7.586,7.586,0,0,1-3.279-.75Zm20.082-6.528h-4.966l.562-2.53h5.247l.5-2.155H554.48l-2.655,11.9h8.526l.469-2.186H555.26l.625-2.873h4.966Zm3.56,7.183.906-4.154c.406-1.874.75-3.56.906-4.716l.062-.031a33.9,33.9,0,0,0,1.374,4.154l1.936,4.747h3.092l2.592-11.9h-2.78l-.937,4.31a23.5,23.5,0,0,0-.625,4.279h-.062c-.344-1.312-.718-2.53-1.249-4.06l-1.843-4.529h-3.5l-2.655,11.9Zm26.61,0a30.04,30.04,0,0,1-2.03-2.217,10.948,10.948,0,0,0,3.279-4.622h-2.717a8.783,8.783,0,0,1-1.936,3.03c-.562-.656-1.312-1.53-1.874-2.28v-.062c2.217-.875,3.435-1.905,3.435-3.279,0-1.593-1.437-2.655-3.529-2.655-2.561,0-4.372,1.5-4.372,3.4a3.475,3.475,0,0,0,.781,2l-.031.062c-1.811.718-3.342,1.843-3.342,3.685,0,1.936,1.718,3.154,4.31,3.154a6.6,6.6,0,0,0,3.717-1,9.6,9.6,0,0,0,.781.812Zm-7.152-1.718c-1.374,0-2.124-.75-2.124-1.687a2.354,2.354,0,0,1,1.374-1.874c.812,1.062,1.749,2.186,2.467,3a2.82,2.82,0,0,1-1.718.562Zm1.593-8.714a1,1,0,0,1,1.124,1.031c0,.875-.875,1.53-1.968,1.968a2.227,2.227,0,0,1-.625-1.468,1.481,1.481,0,0,1,1.468-1.53Zm13.086,10.432h2.967l2.124-9.682h3.717l.5-2.217H598.049l-.531,2.217H601.2Zm15.9-12.087a8.046,8.046,0,0,0-5.091,1.687,7.351,7.351,0,0,0-2.561,5.622c0,2.78,2.03,4.966,5.653,4.966a7.88,7.88,0,0,0,5.153-1.718,7.325,7.325,0,0,0,2.467-5.622C620.6,227.52,618.662,225.4,614.977,225.4Zm-.344,2.124a2.577,2.577,0,0,1,2.811,2.9,6.21,6.21,0,0,1-1.687,4.279,3.672,3.672,0,0,1-2.342.875,2.653,2.653,0,0,1-2.9-2.936,5.931,5.931,0,0,1,1.749-4.216A3.439,3.439,0,0,1,614.633,227.52Zm8.87-1.936-1.468,6.621a8.034,8.034,0,0,0-.219,1.655c0,2.53,1.749,3.81,4.622,3.81,3.779,0,5.653-1.718,6.434-5.341l1.5-6.746H631.4l-1.53,6.871c-.5,2.217-1.53,3.092-3.061,3.092-1.343,0-2.03-.75-2.03-1.687a4.841,4.841,0,0,1,.156-1.405l1.531-6.84-2.967-.031Zm10.619,11.775a22.267,22.267,0,0,0,3.529.219,11.127,11.127,0,0,0,5.247-.968A3.3,3.3,0,0,0,644.8,233.8a2.63,2.63,0,0,0-2.186-2.592v-.062c1.5-.375,2.811-1.312,2.811-2.811a2.4,2.4,0,0,0-1.624-2.155,7.433,7.433,0,0,0-3.436-.625,24.179,24.179,0,0,0-3.654.281l-2.592,11.525Zm5.122-9.776a4.937,4.937,0,0,1,1.156-.094c1.124,0,1.968.375,1.968,1.218,0,1-1.124,1.593-2.748,1.593h-1Zm-1.093,4.591h.937c1.374,0,2.53.344,2.53,1.53,0,1.312-1.468,1.874-3.092,1.874-.437,0-.781-.031-1.124-.062Zm7.589,5.309h2.967l1.031-4.685h.906c1.187,0,1.749.437,1.874,1.874a18.193,18.193,0,0,0,.406,2.811h3.061a16.855,16.855,0,0,1-.531-3.373c-.156-1.062-.5-1.874-1.312-2.155v-.062c1.78-.5,3.154-1.593,3.154-3.342a2.525,2.525,0,0,0-1.562-2.342,8.394,8.394,0,0,0-3.654-.687,20.655,20.655,0,0,0-3.717.312Zm5.153-9.869a4.939,4.939,0,0,1,1.156-.094c1.187,0,2.124.437,2.124,1.374,0,1.156-1.187,2-2.78,2h-1.249Zm14.773-2.217a8.047,8.047,0,0,0-5.091,1.687,7.35,7.35,0,0,0-2.561,5.622c0,2.78,2.03,4.966,5.653,4.966a7.88,7.88,0,0,0,5.153-1.718,7.326,7.326,0,0,0,2.467-5.622C671.288,227.52,669.321,225.4,665.667,225.4Zm-.375,2.124a2.577,2.577,0,0,1,2.811,2.9,6.21,6.21,0,0,1-1.687,4.279,3.673,3.673,0,0,1-2.342.875,2.653,2.653,0,0,1-2.9-2.936,5.931,5.931,0,0,1,1.749-4.216A3.556,3.556,0,0,1,665.292,227.52Z" transform="translate(-128.71 -39.108)"/>
  </g>
</svg>
