<svg xmlns="http://www.w3.org/2000/svg" width="696.706" height="142.123" viewBox="0 0 696.706 142.123">
  <g id="LnT_Full_Logo_blue" data-name="LnT Full Logo_blue" transform="translate(-334.998 -174)">
    <path id="Path_3362" data-name="Path 3362" d="M406.1,183a62,62,0,0,1,.9,124l28.6-51.7h19.5l10.6-19.1h-49l-10.6,19.1h18.3l-28.2,50.9a62.085,62.085,0,0,1-8-120.7l-28,50.6h0l-10.6,19.1h49l10.6-19.1H371.4l29.4-53c1.7,0,3.5-.1,5.3-.1Zm0-9a71.058,71.058,0,1,1-50.288,20.812A71.058,71.058,0,0,1,406.1,174Z" fill="#333" fill-rule="evenodd"/>
    <path id="Path_3363" data-name="Path 3363" d="M507.6,264.1h26.7l1.6-7.1H518.8l6.9-31h-9.5Zm57.2-9.9.9,9.9h10L570.5,226H558.3l-21.7,38.1h10.1l5.3-9.9h12.8Zm-10-6.2,4.4-8.2c1.2-2.2,2.5-5.1,3.6-7.5h.1c.2,2.3.5,5.4.7,7.5l.9,8.2Zm24.6,16.1h9.5l3.3-15h2.9c3.8,0,5.6,1.4,6,6,.5,4.7.9,8,1.3,9h9.8c-.8-1.6-1.2-6.5-1.7-10.8-.5-3.4-1.6-6-4.2-6.9v-.2c5.7-1.6,10.1-5.1,10.1-10.7,0-3.6-2-6-5-7.5-3.1-1.6-7.5-2.2-11.7-2.2a66.138,66.138,0,0,0-11.9,1l-8.4,37.3Zm16.5-31.6a15.809,15.809,0,0,1,3.7-.3c3.8,0,6.8,1.4,6.8,4.4,0,3.7-3.8,6.4-8.9,6.4h-4l2.4-10.5ZM615.5,262c2.1,1.4,6.5,2.7,12.8,2.8,9.9,0,18.1-4.4,18.1-12.9,0-4.5-3.4-7.6-8.9-10.1-3.8-1.8-6.5-3.2-6.5-5.4,0-2.1,2.3-4,6.8-4a18.8,18.8,0,0,1,8.3,1.7l3-6.7c-1.9-1-5.1-2-10.5-2-9.7,0-17.6,4.7-17.6,12.4,0,5,4.5,7.9,9.3,10.1,4.1,1.8,6,3.2,6,5.4,0,3-3.4,4.5-7.1,4.5a24.289,24.289,0,0,1-10.5-2.4l-3.2,6.6Zm64.3-20.9H663.9l1.8-8.1h16.8l1.6-6.9H657.7l-8.5,38.1h27.3l1.5-7H660.2l2-9.2h15.9l1.7-6.9Zm11.4,23,2.9-13.3c1.3-6,2.4-11.4,2.9-15.1l.2-.1a108.536,108.536,0,0,0,4.4,13.3l6.2,15.2h9.9L726,226h-8.9l-3,13.8a75.219,75.219,0,0,0-2,13.7h-.2c-1.1-4.2-2.3-8.1-4-13L702,226H690.8l-8.5,38.1Zm85.2,0a96.2,96.2,0,0,1-6.5-7.1c5.1-4.1,8.1-9,10.5-14.8h-8.7a28.123,28.123,0,0,1-6.2,9.7c-1.8-2.1-4.2-4.9-6-7.3v-.2c7.1-2.8,11-6.1,11-10.5,0-5.1-4.6-8.5-11.3-8.5-8.2,0-14,4.8-14,10.9a11.125,11.125,0,0,0,2.5,6.4l-.1.2c-5.8,2.3-10.7,5.9-10.7,11.8,0,6.2,5.5,10.1,13.8,10.1a21.115,21.115,0,0,0,11.9-3.2,30.73,30.73,0,0,0,2.5,2.6l11.3-.1Zm-22.9-5.5c-4.4,0-6.8-2.4-6.8-5.4,0-2.9,2.4-4.8,4.4-6,2.6,3.4,5.6,7,7.9,9.6a9.029,9.029,0,0,1-5.5,1.8Zm5.1-27.9c2.5,0,3.6,1.5,3.6,3.3,0,2.8-2.8,4.9-6.3,6.3a7.133,7.133,0,0,1-2-4.7,4.742,4.742,0,0,1,4.7-4.9Zm41.9,33.4H810l6.8-31h11.9l1.6-7.1H797.2l-1.7,7.1h11.8Zm50.9-38.7a25.764,25.764,0,0,0-16.3,5.4,23.535,23.535,0,0,0-8.2,18c0,8.9,6.5,15.9,18.1,15.9,6.7,0,12.3-2,16.5-5.5a23.455,23.455,0,0,0,7.9-18c0-9-6.2-15.8-18-15.8Zm-1.1,6.8c7,0,9,4.6,9,9.3,0,4.4-1.9,10.7-5.4,13.7a11.758,11.758,0,0,1-7.5,2.8c-6.5,0-9.3-4-9.3-9.4,0-4.6,2-10.4,5.6-13.5a11.012,11.012,0,0,1,7.6-2.9Zm28.4-6.2L874,247.2a25.761,25.761,0,0,0-.7,5.3c0,8.1,5.6,12.2,14.8,12.2,12.1,0,18.1-5.5,20.6-17.1l4.8-21.6H904l-4.9,22c-1.6,7.1-4.9,9.9-9.8,9.9-4.3,0-6.5-2.4-6.5-5.4a15.5,15.5,0,0,1,.5-4.5l4.9-21.9-9.5-.1Zm34,37.7a71.3,71.3,0,0,0,11.3.7c7.4,0,13-1,16.8-3.1,3.5-2,6.1-5,6.1-9,0-4.2-2.7-7.2-7-8.3v-.2c4.8-1.2,9-4.2,9-9,0-3.2-2.2-5.6-5.2-6.9-3-1.5-6.4-2-11-2a77.41,77.41,0,0,0-11.7.9l-8.3,36.9Zm16.4-31.3a15.812,15.812,0,0,1,3.7-.3c3.6,0,6.3,1.2,6.3,3.9,0,3.2-3.6,5.1-8.8,5.1h-3.2Zm-3.5,14.7h3c4.4,0,8.1,1.1,8.1,4.9,0,4.2-4.7,6-9.9,6-1.4,0-2.5-.1-3.6-.2l2.4-10.7Zm24.3,17h9.5l3.3-15h2.9c3.8,0,5.6,1.4,6,6,.5,4.7.9,8,1.3,9h9.8c-.8-1.6-1.2-6.5-1.7-10.8-.5-3.4-1.6-6-4.2-6.9v-.2c5.7-1.6,10.1-5.1,10.1-10.7,0-3.6-2-6-5-7.5-3.1-1.6-7.5-2.2-11.7-2.2a66.133,66.133,0,0,0-11.9,1l-8.4,37.3Zm16.5-31.6a15.812,15.812,0,0,1,3.7-.3c3.8,0,6.8,1.4,6.8,4.4,0,3.7-3.8,6.4-8.9,6.4h-4l2.4-10.5Zm47.3-7.1a25.764,25.764,0,0,0-16.3,5.4,23.535,23.535,0,0,0-8.2,18c0,8.9,6.5,15.9,18.1,15.9,6.7,0,12.3-2,16.5-5.5a23.454,23.454,0,0,0,7.9-18c0-9-6.3-15.8-18-15.8Zm-1.2,6.8c7,0,9,4.6,9,9.3,0,4.4-1.9,10.7-5.4,13.7a11.758,11.758,0,0,1-7.5,2.8c-6.5,0-9.3-4-9.3-9.4,0-4.6,2-10.4,5.6-13.5a11.386,11.386,0,0,1,7.6-2.9Z" fill="#333"/>
  </g>
</svg>
