<svg xmlns="http://www.w3.org/2000/svg" width="127.931" height="127.931" viewBox="0 0 127.931 127.931">
  <g id="LT" transform="translate(-334.999 -174)">
    <path id="Path_3388" data-name="Path 3388" d="M399,182.1a55.81,55.81,0,1,1,.81,111.617l25.744-46.537h17.553l9.542-17.193H408.542L399,247.181h16.473L390.089,293a55.885,55.885,0,0,1-7.2-108.647l-25.2,45.547h0l-9.542,17.193h44.107L401.8,229.9H367.765l26.464-47.707C395.76,182.191,397.38,182.1,399,182.1Zm0-8.1a63.962,63.962,0,1,1-45.266,18.734A63.962,63.962,0,0,1,399,174Z" fill-rule="evenodd"/>
  </g>
</svg>
