<?xml version="1.0" encoding="utf-8"?>
<svg version="1.1" xmlns:xlink="http://www.w3.org/1999/xlink" width="33px" height="35px" xmlns="http://www.w3.org/2000/svg">
  <g transform="matrix(1 0 0 1 -20 -272 )">
    <path d="M 26.0192307692308 18.37890625  C 26.0192307692308 18.5481770833333  25.9597355769231 18.6979166666667  25.8407451923077 18.828125  L 15.6868990384615 28.828125  C 15.5546875 28.9453125  15.4026442307692 29.00390625  15.2307692307692 29.00390625  C 15.0588942307692 29.00390625  14.9068509615385 28.9453125  14.7746394230769 28.828125  L 9.06310096153846 23.203125  C 8.94411057692308 23.0729166666667  8.88461538461539 22.9231770833333  8.88461538461539 22.75390625  C 8.88461538461539 22.5846354166667  8.94411057692308 22.44140625  9.06310096153846 22.32421875  L 9.97536057692308 21.42578125  C 10.0943509615385 21.30859375  10.2397836538462 21.25  10.4116586538462 21.25  C 10.5835336538462 21.25  10.7355769230769 21.30859375  10.8677884615385 21.42578125  L 15.2307692307692 25.72265625  L 24.0360576923077 17.05078125  C 24.1682692307692 16.93359375  24.3203125 16.875  24.4921875 16.875  C 24.6640625 16.875  24.8094951923077 16.93359375  24.9284855769231 17.05078125  L 25.8407451923077 17.94921875  C 25.9597355769231 18.06640625  26.0192307692308 18.2096354166667  26.0192307692308 18.37890625  Z M 3 13  L 3 32  L 30 32  L 30 13  L 3 13  Z M 9.97536057692308 9.19921875  C 10.0943509615385 9.08203125  10.1538461538462 8.93229166666666  10.1538461538462 8.75  L 10.1538461538462 3.125  C 10.1538461538462 2.94270833333333  10.0943509615385 2.79296875  9.97536057692308 2.67578125  C 9.85637019230769 2.55859375  9.70432692307692 2.5  9.51923076923077 2.5  L 8.25 2.5  C 8.06490384615385 2.5  7.91286057692308 2.55859375  7.79387019230769 2.67578125  C 7.67487980769231 2.79296875  7.61538461538462 2.94270833333333  7.61538461538462 3.125  L 7.61538461538462 8.75  C 7.61538461538462 8.93229166666666  7.67487980769231 9.08203125  7.79387019230769 9.19921875  C 7.91286057692308 9.31640625  8.06490384615385 9.375  8.25 9.375  L 9.51923076923077 9.375  C 9.70432692307692 9.375  9.85637019230769 9.31640625  9.97536057692308 9.19921875  Z M 25.2061298076923 9.19921875  C 25.3251201923077 9.08203125  25.3846153846154 8.93229166666666  25.3846153846154 8.75  L 25.3846153846154 3.125  C 25.3846153846154 2.94270833333333  25.3251201923077 2.79296875  25.2061298076923 2.67578125  C 25.0871394230769 2.55859375  24.9350961538462 2.5  24.75 2.5  L 23.4807692307692 2.5  C 23.2956730769231 2.5  23.1436298076923 2.55859375  23.0246394230769 2.67578125  C 22.9056490384615 2.79296875  22.8461538461538 2.94270833333333  22.8461538461538 3.125  L 22.8461538461538 8.75  C 22.8461538461538 8.93229166666666  22.9056490384615 9.08203125  23.0246394230769 9.19921875  C 23.1436298076923 9.31640625  23.2956730769231 9.375  23.4807692307692 9.375  L 24.75 9.375  C 24.9350961538462 9.375  25.0871394230769 9.31640625  25.2061298076923 9.19921875  Z M 32.2463942307692 5.7421875  C 32.7487980769231 6.23697916666667  33 6.82291666666667  33 7.5  L 33 32.5  C 33 33.1770833333333  32.7487980769231 33.7630208333333  32.2463942307692 34.2578125  C 31.7439903846154 34.7526041666667  31.1490384615385 35  30.4615384615385 35  L 2.53846153846154 35  C 1.85096153846154 35  1.25600961538462 34.7526041666667  0.753605769230769 34.2578125  C 0.251201923076923 33.7630208333333  0 33.1770833333333  0 32.5  L 0 7.5  C 0 6.82291666666667  0.251201923076923 6.23697916666667  0.753605769230769 5.7421875  C 1.25600961538462 5.24739583333333  1.85096153846154 5  2.53846153846154 5  L 5.07692307692308 5  L 5.07692307692308 3.125  C 5.07692307692308 2.265625  5.38762019230769 1.52994791666666  6.00901442307692 0.917968750000001  C 6.63040865384616 0.305989583333334  7.37740384615385 0  8.25 0  L 9.51923076923077 0  C 10.3918269230769 0  11.1388221153846 0.305989583333334  11.7602163461538 0.917968750000001  C 12.3816105769231 1.52994791666666  12.6923076923077 2.265625  12.6923076923077 3.125  L 12.6923076923077 5  L 20.3076923076923 5  L 20.3076923076923 3.125  C 20.3076923076923 2.265625  20.6183894230769 1.52994791666666  21.2397836538462 0.917968750000001  C 21.8611778846154 0.305989583333334  22.6081730769231 0  23.4807692307692 0  L 24.75 0  C 25.6225961538462 0  26.3695913461538 0.305989583333334  26.9909855769231 0.917968750000001  C 27.6123798076923 1.52994791666666  27.9230769230769 2.265625  27.9230769230769 3.125  L 27.9230769230769 5  L 30.4615384615385 5  C 31.1490384615385 5  31.7439903846154 5.24739583333333  32.2463942307692 5.7421875  Z " fill-rule="nonzero" fill="#333333" stroke="none" transform="matrix(1 0 0 1 20 272 )" />
  </g>
</svg>