<svg xmlns="http://www.w3.org/2000/svg" width="17.594" height="17.595" viewBox="0 0 17.594 17.595">
  <path id="Path_29993" data-name="Path 29993" d="M19.23,9.919,17.745,8.434a1.241,1.241,0,0,1-.364-.878v-2.1a1.241,1.241,0,0,0-1.242-1.242h-2.1a1.241,1.241,0,0,1-.878-.363L11.675,2.364a1.241,1.241,0,0,0-1.757,0L8.434,3.849a1.241,1.241,0,0,1-.878.364h-2.1A1.241,1.241,0,0,0,4.212,5.455v2.1a1.241,1.241,0,0,1-.363.878L2.364,9.919a1.241,1.241,0,0,0,0,1.757l1.485,1.485a1.241,1.241,0,0,1,.364.878v2.1a1.241,1.241,0,0,0,1.242,1.242h2.1a1.241,1.241,0,0,1,.878.363l1.485,1.486a1.241,1.241,0,0,0,1.757,0l1.485-1.485a1.241,1.241,0,0,1,.878-.364h2.1a1.241,1.241,0,0,0,1.242-1.242v-2.1a1.241,1.241,0,0,1,.363-.878l1.486-1.485a1.241,1.241,0,0,0,0-1.757ZM14.975,8.177l-5.12,6.141a.7.7,0,0,1-.509.253H9.315a.7.7,0,0,1-.5-.206L6.662,12.209a.7.7,0,1,1,1-1l1.612,1.611,4.625-5.549a.7.7,0,1,1,1.082.9Z" transform="translate(-2 -2)" fill="#49ae31"/>
</svg>
